<?xml version="1.0" encoding="UTF-8"?>
<svg xmlns="http://www.w3.org/2000/svg" xmlns:xlink="http://www.w3.org/1999/xlink" width="128px" height="128px" viewBox="0 0 128 128" version="1.1">
<g id="surface1">
<path d="M 92.535156 85.128906 C 87.140625 87.484375 82.746094 58.808594 89.378906 60.550781 C 100.382812 66.71875 98.472656 80.445312 92.535156 85.128906 Z M 86.800781 103.417969 C 80.453125 112.0625 71.863281 112.398438 68.664062 109.992188 C 65.320312 106.890625 67.875 97.273438 72.460938 91.996094 C 77.710938 86.179688 83.320312 82.378906 87.230469 85.347656 C 89.863281 87.921875 91.40625 97.613281 86.800781 103.417969 Z M 66.175781 92.738281 C 66.21875 100.148438 59.617188 106.191406 51.429688 106.230469 C 43.246094 106.269531 36.574219 100.292969 36.53125 92.882812 C 36.53125 92.835938 36.53125 92.789062 36.53125 92.738281 C 36.488281 85.328125 43.089844 79.289062 51.273438 79.25 C 59.460938 79.210938 66.132812 85.1875 66.175781 92.597656 C 66.175781 92.644531 66.175781 92.691406 66.175781 92.738281 Z M 51.417969 123.972656 C 44.054688 124.285156 36.835938 118.050781 36.929688 115.890625 C 36.820312 112.722656 45.894531 110.25 51.8125 110.398438 C 57.769531 110.140625 65.757812 112.28125 65.773438 115.117188 C 65.875 117.871094 58.527344 124.09375 51.417969 123.972656 Z M 25.769531 80.101562 C 19.625 76.152344 18.519531 67.199219 23.292969 60.101562 C 28.070312 53.007812 36.921875 50.457031 43.0625 54.410156 C 49.207031 58.359375 50.3125 67.3125 45.535156 74.410156 C 40.761719 81.503906 31.910156 84.054688 25.769531 80.101562 Z M 32.410156 110.007812 C 29.0625 111.988281 20.933594 111.171875 15.15625 103.023438 C 11.257812 96.1875 11.761719 89.230469 14.496094 87.1875 C 18.585938 84.742188 24.910156 88.046875 29.773438 93.585938 C 34.015625 98.601562 35.945312 107.410156 32.410156 110.007812 Z M 9.589844 85.488281 C 3.652344 80.800781 1.742188 67.078125 12.746094 60.910156 C 19.375 59.164062 14.984375 87.839844 9.589844 85.488281 Z M 35.519531 38.796875 C 39.734375 39.492188 15.3125 60.429688 14.9375 55.757812 C 14.554688 43.578125 24.074219 36.902344 35.519531 38.796875 Z M 20.445312 32.753906 C 21.363281 32.566406 21.792969 32.386719 22.222656 31.71875 C 19.964844 31.011719 17.53125 30.402344 16.101562 29.230469 C 16.871094 29.242188 17.59375 29.402344 18.601562 28.714844 C 16.578125 27.644531 14.417969 26.796875 12.742188 25.160156 C 13.789062 25.132812 14.914062 25.148438 15.242188 24.769531 C 13.390625 23.644531 11.828125 22.390625 10.535156 21.023438 C 12 21.195312 12.617188 21.046875 12.972656 20.796875 C 11.570312 19.386719 9.800781 18.199219 8.953125 16.464844 C 10.042969 16.832031 11.035156 16.972656 11.753906 16.433594 C 11.277344 15.378906 9.238281 14.757812 8.066406 12.292969 C 9.210938 12.402344 10.425781 12.539062 10.667969 12.292969 C 10.136719 10.171875 9.222656 8.976562 8.328125 7.738281 C 10.78125 7.703125 14.492188 7.746094 14.324219 7.542969 L 12.808594 6.023438 C 15.199219 5.390625 17.648438 6.125 19.425781 6.671875 C 20.222656 6.054688 19.414062 5.269531 18.4375 4.472656 C 20.472656 4.738281 22.308594 5.199219 23.96875 5.832031 C 24.859375 5.042969 23.394531 4.257812 22.6875 3.472656 C 25.828125 4.054688 27.160156 4.878906 28.480469 5.703125 C 29.441406 4.796875 28.535156 4.03125 27.890625 3.246094 C 30.257812 4.105469 31.476562 5.21875 32.761719 6.316406 C 33.199219 5.738281 33.867188 5.316406 33.058594 3.921875 C 34.738281 4.875 36.007812 5.996094 36.945312 7.253906 C 37.984375 6.601562 37.5625 5.710938 37.570312 4.894531 C 39.316406 6.289062 40.425781 7.773438 41.785156 9.222656 C 42.058594 9.027344 42.296875 8.367188 42.507812 7.316406 C 46.679688 11.289062 52.570312 21.289062 44.023438 25.257812 C 36.753906 19.371094 28.070312 15.09375 18.453125 11.882812 C 30.816406 18.140625 38.007812 23.207031 41.949219 27.519531 C 39.929688 35.460938 29.398438 35.824219 25.550781 35.597656 C 26.339844 35.238281 26.996094 34.808594 27.230469 34.144531 C 26.261719 33.472656 22.835938 34.074219 20.445312 32.753906 Z M 51.285156 35.957031 C 57.347656 35.890625 64.851562 40.394531 64.820312 44.640625 C 64.792969 48.386719 59.550781 51.421875 51.332031 51.363281 C 43.285156 51.269531 37.867188 47.550781 37.882812 43.921875 C 37.902344 40.933594 44.457031 35.78125 51.285156 35.957031 Z M 59.914062 7.316406 C 60.125 8.363281 60.363281 9.027344 60.636719 9.222656 C 61.996094 7.773438 63.105469 6.289062 64.851562 4.890625 C 64.859375 5.710938 64.4375 6.601562 65.476562 7.25 C 66.414062 5.996094 67.679688 4.875 69.363281 3.921875 C 68.554688 5.316406 69.222656 5.738281 69.660156 6.316406 C 70.945312 5.21875 72.164062 4.105469 74.53125 3.242188 C 73.886719 4.03125 72.980469 4.796875 73.941406 5.699219 C 75.261719 4.878906 76.59375 4.054688 79.734375 3.46875 C 79.027344 4.257812 77.5625 5.042969 78.449219 5.828125 C 80.113281 5.199219 81.949219 4.738281 83.984375 4.472656 C 83.007812 5.269531 82.199219 6.050781 82.996094 6.671875 C 84.773438 6.125 87.222656 5.390625 89.613281 6.023438 L 88.097656 7.542969 C 87.929688 7.746094 91.640625 7.699219 94.089844 7.738281 C 93.199219 8.972656 92.285156 10.167969 91.753906 12.292969 C 91.996094 12.539062 93.210938 12.402344 94.355469 12.292969 C 93.179688 14.757812 91.144531 15.378906 90.667969 16.433594 C 91.382812 16.972656 92.378906 16.832031 93.464844 16.464844 C 92.621094 18.199219 90.847656 19.386719 89.449219 20.796875 C 89.804688 21.046875 90.421875 21.195312 91.886719 21.023438 C 90.59375 22.390625 89.03125 23.644531 87.175781 24.769531 C 87.503906 25.148438 88.632812 25.132812 89.679688 25.160156 C 88 26.796875 85.84375 27.644531 83.820312 28.714844 C 84.828125 29.402344 85.546875 29.242188 86.320312 29.230469 C 84.890625 30.402344 82.457031 31.011719 80.195312 31.71875 C 80.625 32.386719 81.054688 32.566406 81.972656 32.753906 C 79.582031 34.074219 76.15625 33.472656 75.191406 34.144531 C 75.425781 34.808594 76.082031 35.238281 76.871094 35.597656 C 73.019531 35.824219 62.492188 35.460938 60.472656 27.519531 C 64.414062 23.203125 71.605469 18.136719 83.980469 11.875 C 74.351562 15.085938 65.667969 19.367188 58.398438 25.257812 C 49.851562 21.289062 55.742188 11.289062 59.914062 7.316406 Z M 76.9375 79.386719 C 70.796875 83.339844 61.945312 80.789062 57.167969 73.691406 C 52.390625 66.597656 53.5 57.644531 59.640625 53.695312 C 65.785156 49.742188 74.632812 52.292969 79.410156 59.386719 C 84.1875 66.484375 83.078125 75.4375 76.9375 79.386719 Z M 87.71875 56.113281 C 87.34375 60.785156 62.921875 39.851562 67.136719 39.15625 C 78.582031 37.257812 88.105469 43.933594 87.71875 56.113281 Z M 93.277344 58.097656 L 92.351562 56.480469 C 92.390625 44.886719 86.992188 40.160156 80.695312 36.566406 C 82.601562 36.066406 84.570312 35.65625 85.109375 33.273438 C 88.378906 32.4375 89.066406 30.925781 89.394531 29.328125 C 90.25 28.757812 93.113281 27.164062 92.8125 24.417969 C 94.417969 23.3125 95.3125 21.898438 94.859375 19.890625 C 96.582031 18.015625 97.035156 16.46875 96.304688 15.042969 C 98.371094 12.480469 97.453125 11.152344 96.570312 9.808594 C 98.121094 7.007812 96.753906 4.003906 92.421875 4.503906 C 90.695312 1.980469 86.941406 2.554688 86.359375 2.566406 C 85.707031 1.757812 84.851562 1.0625 82.210938 1.398438 C 80.5 -0.121094 78.585938 0.136719 76.617188 0.886719 C 74.273438 -0.929688 72.722656 0.523438 70.953125 1.074219 C 68.117188 0.164062 67.46875 1.410156 66.074219 1.917969 C 62.984375 1.277344 62.042969 2.671875 60.5625 4.148438 L 58.835938 4.113281 C 54.171875 6.8125 51.855469 12.308594 51.035156 15.132812 C 50.210938 12.308594 47.898438 6.8125 43.234375 4.113281 L 41.511719 4.148438 C 40.027344 2.671875 39.085938 1.277344 35.996094 1.917969 C 34.601562 1.410156 33.957031 0.164062 31.117188 1.074219 C 29.957031 0.714844 28.886719 -0.0351562 27.628906 0.00390625 L 27.632812 0.00390625 C 26.972656 0.0234375 26.261719 0.261719 25.457031 0.886719 C 23.484375 0.140625 21.570312 -0.121094 19.863281 1.398438 C 17.222656 1.0625 16.363281 1.757812 15.710938 2.566406 C 15.132812 2.554688 11.375 1.980469 9.652344 4.507812 C 5.320312 4.003906 3.949219 7.007812 5.503906 9.808594 C 4.617188 11.152344 3.703125 12.480469 5.769531 15.042969 C 5.039062 16.46875 5.492188 18.019531 7.214844 19.894531 C 6.761719 21.898438 7.65625 23.316406 9.257812 24.417969 C 8.957031 27.164062 11.824219 28.761719 12.679688 29.328125 C 13.007812 30.929688 13.691406 32.4375 16.964844 33.273438 C 17.503906 35.65625 19.472656 36.070312 21.375 36.570312 C 15.082031 40.160156 9.683594 44.886719 9.71875 56.484375 L 8.796875 58.097656 C 1.578125 62.40625 -4.914062 76.253906 5.242188 87.511719 C 5.902344 91.035156 7.015625 93.566406 8.007812 96.367188 C 9.488281 107.652344 19.15625 112.9375 21.707031 113.5625 C 25.441406 116.359375 29.421875 119.007812 34.808594 120.867188 C 39.882812 126.007812 45.382812 127.964844 50.914062 127.960938 C 50.996094 127.960938 51.078125 127.964844 51.160156 127.960938 C 56.691406 127.964844 62.191406 126.007812 67.265625 120.867188 C 72.652344 119.007812 76.632812 116.359375 80.367188 113.5625 C 82.917969 112.9375 92.585938 107.652344 94.066406 96.367188 C 95.058594 93.566406 96.171875 91.035156 96.832031 87.511719 C 106.988281 76.253906 100.496094 62.40625 93.277344 58.097656 "/>
</g>
</svg>
