<?xml version="1.0" encoding="UTF-8"?>
<svg xmlns="http://www.w3.org/2000/svg" xmlns:xlink="http://www.w3.org/1999/xlink" width="128px" height="128px" viewBox="0 0 128 128" version="1.1">
<g id="surface1">
<path d="M 103.5 84.1 C 98.1 86.5 93.7 57.8 100.4 59.6 C 111.4 65.7 109.5 79.4 103.5 84.1 Z M 97.8 102.4 C 91.5 111.1 82.9 111.4 79.7 109 C 76.3 105.9 78.9 96.3 83.5 91 C 88.7 85.2 94.3 81.4 98.2 84.3 C 100.9 86.9 102.4 96.6 97.8 102.4 Z M 77.2 91.7 C 77.2 99.1 70.6 105.2 62.4 105.2 C 54.2 105.3 47.6 99.3 47.5 91.9 C 47.5 91.8 47.5 91.8 47.5 91.7 C 47.5 84.3 54.1 78.3 62.3 78.3 C 70.5 78.2 77.1 84.2 77.2 91.6 C 77.2 91.6 77.2 91.7 77.2 91.7 Z M 62.4 123 C 55.1 123.3 47.8 117.1 47.9 114.9 C 47.8 111.7 56.9 109.3 62.8 109.4 C 68.8 109.1 76.8 111.3 76.8 114.1 C 76.9 116.9 69.5 123.1 62.4 123 Z M 36.8 79.1 C 30.6 75.2 29.5 66.2 34.3 59.1 C 39.1 52 47.9 49.5 54.1 53.4 C 60.2 57.4 61.3 66.3 56.5 73.4 C 51.8 80.5 42.9 83.1 36.8 79.1 Z M 43.4 109 C 40.1 111 31.9 110.2 26.2 102 C 22.3 95.2 22.8 88.2 25.5 86.2 C 29.6 83.7 35.9 87 40.8 92.6 C 45 97.6 46.9 106.4 43.4 109 Z M 20.6 84.5 C 14.7 79.8 12.7 66.1 23.7 59.9 C 30.4 58.2 26 86.8 20.6 84.5 Z M 46.5 37.8 C 50.7 38.5 26.3 59.4 25.9 54.8 C 25.6 42.6 35.1 35.9 46.5 37.8 Z M 31.4 31.8 C 32.4 31.6 32.8 31.4 33.2 30.7 C 31 30 28.5 29.4 27.1 28.2 C 27.9 28.2 28.6 28.4 29.6 27.7 C 27.6 26.6 25.4 25.8 23.7 24.2 C 24.8 24.1 25.9 24.1 26.2 23.8 C 24.4 22.6 22.8 21.4 21.5 20 C 23 20.2 23.6 20 24 19.8 C 22.6 18.4 20.8 17.2 20 15.5 C 21 15.8 22 16 22.8 15.4 C 22.3 14.4 20.2 13.8 19.1 11.3 C 20.2 11.4 21.4 11.5 21.7 11.3 C 21.1 9.2 20.2 8 19.3 6.7 C 21.8 6.7 25.5 6.7 25.3 6.5 L 23.8 5 C 26.2 4.4 28.6 5.1 30.4 5.7 C 31.2 5.1 30.4 4.3 29.4 3.5 C 31.5 3.7 33.3 4.2 35 4.8 C 35.9 4 34.4 3.3 33.7 2.5 C 36.8 3.1 38.2 3.9 39.5 4.7 C 40.4 3.8 39.5 3 38.9 2.2 C 41.3 3.1 42.5 4.2 43.8 5.3 C 44.2 4.7 44.9 4.3 44.1 2.9 C 45.7 3.9 47 5 47.9 6.3 C 49 5.6 48.6 4.7 48.6 3.9 C 50.3 5.3 51.4 6.8 52.8 8.2 C 53.1 8 53.3 7.4 53.5 6.3 C 57.7 10.3 63.6 20.3 55 24.3 C 47.8 18.4 39.1 14.1 29.5 10.9 C 41.8 17.1 49 22.2 52.9 26.5 C 50.9 34.5 40.4 34.8 36.6 34.6 C 37.3 34.2 38 33.8 38.2 33.1 C 37.3 32.5 33.8 33.1 31.4 31.8 Z M 62.3 35 C 68.3 34.9 75.9 39.4 75.8 43.6 C 75.8 47.4 70.6 50.4 62.3 50.4 C 54.3 50.3 48.9 46.6 48.9 42.9 C 48.9 39.9 55.5 34.8 62.3 35 Z M 70.9 6.3 C 71.1 7.4 71.4 8 71.6 8.2 C 73 6.8 74.1 5.3 75.9 3.9 C 75.9 4.7 75.4 5.6 76.5 6.3 C 77.4 5 78.7 3.9 80.4 2.9 C 79.6 4.3 80.2 4.7 80.7 5.3 C 81.9 4.2 83.2 3.1 85.5 2.2 C 84.9 3 84 3.8 84.9 4.7 C 86.3 3.9 87.6 3.1 90.7 2.5 C 90 3.3 88.6 4 89.4 4.8 C 91.1 4.2 92.9 3.7 95 3.5 C 94 4.3 93.2 5.1 94 5.7 C 95.8 5.1 98.2 4.4 100.6 5 L 99.1 6.5 C 98.9 6.7 102.6 6.7 105.1 6.7 C 104.2 8 103.3 9.2 102.8 11.3 C 103 11.5 104.2 11.4 105.4 11.3 C 104.2 13.8 102.1 14.4 101.7 15.4 C 102.4 16 103.4 15.8 104.5 15.5 C 103.6 17.2 101.8 18.4 100.4 19.8 C 100.8 20 101.4 20.2 102.9 20 C 101.6 21.4 100 22.6 98.2 23.8 C 98.5 24.1 99.6 24.1 100.7 24.2 C 99 25.8 96.8 26.6 94.8 27.7 C 95.8 28.4 96.5 28.2 97.3 28.2 C 95.9 29.4 93.5 30 91.2 30.7 C 91.6 31.4 92.1 31.6 93 31.8 C 90.6 33.1 87.2 32.5 86.2 33.1 C 86.4 33.8 87.1 34.2 87.9 34.6 C 84 34.8 73.5 34.5 71.5 26.5 C 75.4 22.2 82.6 17.1 95 10.9 C 85.4 14.1 76.7 18.4 69.4 24.3 C 60.9 20.3 66.7 10.3 70.9 6.3 Z M 87.9 78.4 C 81.8 82.3 72.9 79.8 68.2 72.7 C 63.4 65.6 64.5 56.6 70.6 52.7 C 76.8 48.7 85.6 51.3 90.4 58.4 C 95.2 65.5 94.1 74.4 87.9 78.4 Z M 98.7 55.1 C 98.3 59.8 73.9 38.9 78.1 38.2 C 89.6 36.3 99.1 42.9 98.7 55.1 Z M 104.3 57.1 L 103.4 55.5 C 103.4 43.9 98 39.2 91.7 35.6 C 93.6 35.1 95.6 34.7 96.1 32.3 C 99.4 31.4 100.1 29.9 100.4 28.3 C 101.3 27.8 104.1 26.2 103.8 23.4 C 105.4 22.3 106.3 20.9 105.9 18.9 C 107.6 17 108 15.5 107.3 14 C 109.4 11.5 108.5 10.2 107.6 8.8 C 109.1 6 107.8 3 103.4 3.5 C 101.7 1 97.9 1.6 97.4 1.6 C 96.7 0.8 95.9 0.1 93.2 0.4 C 91.5 -1.1 89.6 -0.9 87.6 -0.1 C 85.3 -1.9 83.7 -0.5 82 0.1 C 79.1 -0.8 78.5 0.4 77.1 0.9 C 74 0.3 73 1.7 71.6 3.1 L 69.8 3.1 C 65.2 5.8 62.9 11.3 62 14.1 C 61.2 11.3 58.9 5.8 54.2 3.1 L 52.5 3.1 C 51 1.7 50.1 0.3 47 0.9 C 45.6 0.4 45 -0.8 42.1 0.1 C 41 -0.3 39.9 -1 38.6 -1 L 38.6 -1 C 38 -1 37.3 -0.7 36.5 -0.1 C 34.5 -0.9 32.6 -1.1 30.9 0.4 C 28.2 0.1 27.4 0.8 26.7 1.6 C 26.1 1.6 22.4 1 20.7 3.5 C 16.3 3 14.9 6 16.5 8.8 C 15.6 10.2 14.7 11.5 16.8 14 C 16 15.5 16.5 17 18.2 18.9 C 17.8 20.9 18.7 22.3 20.3 23.4 C 20 26.2 22.8 27.8 23.7 28.3 C 24 29.9 24.7 31.4 28 32.3 C 28.5 34.7 30.5 35.1 32.4 35.6 C 26.1 39.2 20.7 43.9 20.7 55.5 L 19.8 57.1 C 12.6 61.4 6.1 75.3 16.2 86.5 C 16.9 90 18 92.6 19 95.4 C 20.5 106.7 30.2 111.9 32.7 112.6 C 36.4 115.4 40.4 118 45.8 119.9 C 50.9 125 56.4 127 61.9 127 C 62 127 62.1 127 62.2 127 C 67.7 127 73.2 125 78.3 119.9 C 83.7 118 87.6 115.4 91.4 112.6 C 93.9 111.9 103.6 106.7 105.1 95.4 C 106.1 92.6 107.2 90 107.8 86.5 C 118 75.3 111.5 61.4 104.3 57.1"/>
</g>
</svg>
