<?xml version="1.0" encoding="UTF-8"?>
<svg xmlns="http://www.w3.org/2000/svg" xmlns:xlink="http://www.w3.org/1999/xlink" width="128px" height="128px" viewBox="0 0 128 128" version="1.1">
<g id="surface1">
<path d="M 27.3 62.6 C 25.9 63.2 24.8 55.6 26.5 56.1 C 29.4 57.7 28.9 61.4 27.3 62.6 Z M 25.8 67.5 C 24.2 69.8 21.9 69.9 21.1 69.2 C 20.2 68.4 20.9 65.8 22.1 64.4 C 23.4 62.9 24.9 61.9 25.9 62.7 C 26.6 63.4 27 65.9 25.8 67.5 Z M 20.4 64.6 C 20.4 66.6 18.7 68.2 16.5 68.2 C 14.4 68.2 12.6 66.6 12.6 64.7 C 12.6 64.7 12.6 64.6 12.6 64.6 C 12.6 62.7 14.3 61.1 16.5 61.1 C 18.6 61 20.4 62.6 20.4 64.6 C 20.4 64.6 20.4 64.6 20.4 64.6 Z M 16.5 72.9 C 14.6 73 12.7 71.4 12.7 70.8 C 12.7 69.9 15.1 69.3 16.6 69.3 C 18.2 69.3 20.3 69.8 20.3 70.6 C 20.3 71.3 18.4 73 16.5 72.9 Z M 9.8 61.3 C 8.2 60.2 7.9 57.9 9.1 56 C 10.4 54.1 12.7 53.4 14.3 54.5 C 15.9 55.5 16.2 57.9 15 59.8 C 13.7 61.6 11.4 62.3 9.8 61.3 Z M 11.5 69.2 C 10.6 69.7 8.5 69.5 7 67.4 C 6 65.6 6.1 63.7 6.8 63.2 C 7.9 62.5 9.6 63.4 10.8 64.9 C 11.9 66.2 12.5 68.5 11.5 69.2 Z M 5.5 62.7 C 4 61.5 3.5 57.8 6.4 56.2 C 8.1 55.7 6.9 63.3 5.5 62.7 Z M 12.3 50.3 C 13.4 50.5 7 56.1 6.9 54.8 C 6.8 51.6 9.3 49.8 12.3 50.3 Z M 8.4 48.7 C 8.6 48.7 8.7 48.6 8.8 48.4 C 8.3 48.2 7.6 48.1 7.2 47.8 C 7.4 47.8 7.6 47.8 7.9 47.6 C 7.4 47.3 6.8 47.1 6.4 46.7 C 6.6 46.7 6.9 46.7 7 46.6 C 6.5 46.3 6.1 45.9 5.8 45.6 C 6.2 45.6 6.3 45.6 6.4 45.5 C 6 45.1 5.6 44.8 5.4 44.4 C 5.6 44.5 5.9 44.5 6.1 44.4 C 6 44.1 5.4 43.9 5.1 43.3 C 5.4 43.3 5.7 43.3 5.8 43.3 C 5.7 42.7 5.4 42.4 5.2 42.1 C 5.8 42 6.8 42.1 6.8 42 L 6.4 41.6 C 7 41.4 7.6 41.6 8.1 41.8 C 8.3 41.6 8.1 41.4 7.9 41.2 C 8.4 41.3 8.9 41.4 9.3 41.5 C 9.5 41.3 9.2 41.1 9 40.9 C 9.8 41.1 10.1 41.3 10.5 41.5 C 10.7 41.3 10.5 41.1 10.3 40.9 C 11 41.1 11.3 41.4 11.6 41.7 C 11.7 41.5 11.9 41.4 11.7 41 C 12.1 41.3 12.5 41.6 12.7 41.9 C 13 41.8 12.9 41.5 12.9 41.3 C 13.3 41.7 13.6 42.1 14 42.4 C 14.1 42.4 14.1 42.2 14.2 41.9 C 15.3 43 16.8 45.7 14.6 46.7 C 12.7 45.1 10.4 44 7.9 43.2 C 11.1 44.8 13 46.2 14 47.3 C 13.5 49.4 10.7 49.5 9.7 49.5 C 9.9 49.4 10.1 49.2 10.2 49.1 C 9.9 48.9 9 49.1 8.4 48.7 Z M 16.5 49.6 C 18.1 49.5 20.1 50.7 20.1 51.9 C 20 52.9 18.7 53.7 16.5 53.6 C 14.4 53.6 13 52.6 13 51.7 C 13 50.9 14.7 49.5 16.5 49.6 Z M 18.8 41.9 C 18.8 42.2 18.9 42.4 18.9 42.4 C 19.3 42.1 19.6 41.7 20.1 41.3 C 20.1 41.5 19.9 41.8 20.2 41.9 C 20.5 41.6 20.8 41.3 21.2 41 C 21 41.4 21.2 41.5 21.3 41.7 C 21.7 41.4 22 41.1 22.6 40.9 C 22.4 41.1 22.2 41.3 22.4 41.5 C 22.8 41.3 23.1 41.1 24 40.9 C 23.8 41.1 23.4 41.3 23.6 41.5 C 24.1 41.4 24.6 41.3 25.1 41.2 C 24.8 41.4 24.6 41.6 24.8 41.8 C 25.3 41.6 25.9 41.4 26.6 41.6 L 26.2 42 C 26.1 42.1 27.1 42 27.7 42.1 C 27.5 42.4 27.3 42.7 27.1 43.3 C 27.2 43.3 27.5 43.3 27.8 43.3 C 27.5 43.9 27 44.1 26.8 44.4 C 27 44.5 27.3 44.5 27.6 44.4 C 27.4 44.8 26.9 45.1 26.5 45.5 C 26.6 45.6 26.8 45.6 27.2 45.6 C 26.8 45.9 26.4 46.3 25.9 46.6 C 26 46.7 26.3 46.7 26.6 46.7 C 26.1 47.1 25.6 47.3 25 47.6 C 25.3 47.8 25.5 47.8 25.7 47.8 C 25.3 48.1 24.7 48.2 24.1 48.4 C 24.2 48.6 24.3 48.7 24.6 48.7 C 23.9 49.1 23 48.9 22.8 49.1 C 22.8 49.2 23 49.4 23.2 49.5 C 22.2 49.5 19.4 49.4 18.9 47.3 C 19.9 46.2 21.8 44.8 25.1 43.2 C 22.6 44 20.3 45.1 18.4 46.7 C 16.1 45.7 17.7 43 18.8 41.9 Z M 23.2 61.1 C 21.6 62.1 19.3 61.5 18 59.6 C 16.8 57.7 17.1 55.3 18.7 54.3 C 20.3 53.2 22.6 53.9 23.9 55.8 C 25.1 57.7 24.9 60 23.2 61.1 Z M 26.1 54.9 C 26 56.1 19.6 50.6 20.7 50.4 C 23.7 49.9 26.2 51.7 26.1 54.9 Z M 27.5 55.4 L 27.3 55 C 27.3 51.9 25.9 50.7 24.2 49.7 C 24.7 49.6 25.2 49.5 25.4 48.8 C 26.2 48.6 26.4 48.2 26.5 47.8 C 26.7 47.6 27.5 47.2 27.4 46.5 C 27.8 46.2 28.1 45.8 27.9 45.3 C 28.4 44.8 28.5 44.4 28.3 44 C 28.9 43.3 28.6 43 28.4 42.6 C 28.8 41.9 28.4 41.1 27.3 41.2 C 26.9 40.5 25.9 40.7 25.7 40.7 C 25.5 40.5 25.3 40.3 24.6 40.4 C 24.2 40 23.7 40 23.2 40.2 C 22.5 39.8 22.1 40.1 21.7 40.3 C 20.9 40 20.7 40.4 20.4 40.5 C 19.6 40.3 19.3 40.7 18.9 41.1 L 18.5 41.1 C 17.2 41.8 16.6 43.3 16.4 44 C 16.2 43.3 15.6 41.8 14.4 41.1 L 13.9 41.1 C 13.5 40.7 13.3 40.3 12.5 40.5 C 12.1 40.4 11.9 40 11.2 40.3 C 10.9 40.2 10.6 40 10.3 40 C 10.1 40 9.9 40.1 9.7 40.2 C 9.2 40 8.7 40 8.2 40.4 C 7.5 40.3 7.3 40.5 7.1 40.7 C 7 40.7 6 40.5 5.5 41.2 C 4.4 41.1 4 41.9 4.4 42.6 C 4.2 43 4 43.3 4.5 44 C 4.3 44.4 4.4 44.8 4.9 45.3 C 4.8 45.8 5 46.2 5.4 46.5 C 5.4 47.2 6.1 47.6 6.3 47.8 C 6.4 48.2 6.6 48.6 7.5 48.8 C 7.6 49.5 8.1 49.6 8.6 49.7 C 7 50.7 5.5 51.9 5.6 55 L 5.3 55.4 C 3.4 56.6 1.7 60.3 4.4 63.2 C 4.6 64.2 4.8 64.9 5.1 65.6 C 5.5 68.6 8 70 8.7 70.2 C 9.7 70.9 10.7 71.6 12.2 72.1 C 13.5 73.5 14.9 74 16.4 74 C 16.4 74 16.4 74 16.5 74 C 17.9 74 19.4 73.5 20.7 72.1 C 22.1 71.6 23.2 70.9 24.1 70.2 C 24.8 70 27.4 68.6 27.7 65.6 C 28 64.9 28.3 64.2 28.5 63.2 C 31.1 60.3 29.4 56.6 27.5 55.4"/>
<path d="M 35.4 55.1 L 37.4 55.1 C 38 55.1 38.5 54.9 38.8 54.6 C 39.1 54.4 39.3 54 39.3 53.4 C 39.3 52.9 39.1 52.5 38.8 52.2 C 38.5 51.9 38 51.7 37.4 51.7 L 35.4 51.7 Z M 35.4 56.8 L 35.4 61.4 L 33.1 61.4 L 33.1 49.9 L 37.4 49.9 C 38.7 49.9 39.7 50.2 40.5 50.8 C 41.2 51.4 41.6 52.3 41.6 53.3 C 41.6 53.9 41.4 54.4 41.1 54.9 C 40.8 55.3 40.4 55.6 39.8 55.9 C 40.4 56.1 40.9 56.4 41.2 56.9 C 41.5 57.4 41.7 57.9 41.7 58.6 L 41.7 59.5 C 41.7 59.8 41.7 60.1 41.8 60.5 C 41.9 60.8 42 61.1 42.2 61.3 L 42.2 61.4 L 39.9 61.4 C 39.7 61.3 39.5 61 39.5 60.6 C 39.4 60.2 39.4 59.8 39.4 59.5 L 39.4 58.7 C 39.4 58.1 39.2 57.6 38.9 57.3 C 38.6 57 38.1 56.8 37.6 56.8 L 35.4 56.8"/>
<path d="M 46.4 59.9 C 46.8 59.9 47.2 59.8 47.5 59.6 C 47.8 59.4 48 59.2 48.2 58.9 L 48.2 57.7 L 46.9 57.7 C 46.4 57.7 46 57.8 45.8 58.1 C 45.5 58.3 45.4 58.6 45.4 58.9 C 45.4 59.2 45.5 59.5 45.7 59.6 C 45.9 59.8 46.1 59.9 46.4 59.9 Z M 48.5 61.4 C 48.5 61.2 48.4 61 48.3 60.8 C 48.3 60.6 48.2 60.4 48.2 60.2 C 48 60.6 47.7 60.9 47.3 61.2 C 46.9 61.5 46.4 61.6 45.9 61.6 C 45 61.6 44.3 61.4 43.8 60.9 C 43.3 60.4 43.1 59.8 43.1 59 C 43.1 58.2 43.4 57.5 44.1 57.1 C 44.7 56.6 45.6 56.4 46.9 56.4 L 48.2 56.4 L 48.2 55.7 C 48.2 55.3 48.1 55 47.8 54.7 C 47.6 54.5 47.3 54.4 46.9 54.4 C 46.5 54.4 46.2 54.5 46 54.7 C 45.8 54.9 45.7 55.1 45.7 55.4 L 43.5 55.4 L 43.5 55.4 C 43.5 54.7 43.8 54 44.4 53.5 C 45.1 53 46 52.7 47 52.7 C 48.1 52.7 48.9 53 49.5 53.5 C 50.1 54 50.5 54.8 50.5 55.7 L 50.5 59.3 C 50.5 59.7 50.5 60 50.6 60.4 C 50.6 60.7 50.7 61.1 50.8 61.4 L 48.5 61.4"/>
<path d="M 56.8 59.1 C 56.8 58.8 56.7 58.6 56.4 58.4 C 56.2 58.2 55.7 58.1 55.1 57.9 C 54.1 57.7 53.3 57.4 52.8 57 C 52.3 56.6 52 56.1 52 55.4 C 52 54.6 52.3 54 53 53.5 C 53.6 53 54.4 52.7 55.4 52.7 C 56.5 52.7 57.4 53 58 53.5 C 58.7 54 59 54.6 58.9 55.4 L 58.9 55.5 L 56.7 55.5 C 56.7 55.1 56.6 54.9 56.4 54.6 C 56.2 54.4 55.8 54.3 55.4 54.3 C 55.1 54.3 54.8 54.4 54.6 54.6 C 54.3 54.8 54.2 55 54.2 55.3 C 54.2 55.5 54.3 55.7 54.6 55.9 C 54.8 56.1 55.2 56.2 55.9 56.4 C 57 56.6 57.7 56.9 58.3 57.3 C 58.8 57.7 59 58.3 59 59 C 59 59.8 58.7 60.4 58 60.9 C 57.4 61.4 56.5 61.6 55.4 61.6 C 54.3 61.6 53.4 61.3 52.8 60.7 C 52.1 60.2 51.8 59.5 51.8 58.8 L 51.8 58.7 L 53.9 58.7 C 53.9 59.2 54.1 59.5 54.4 59.7 C 54.7 59.9 55 60 55.5 60 C 55.9 60 56.2 59.9 56.5 59.8 C 56.7 59.6 56.8 59.4 56.8 59.1"/>
<path d="M 65.9 57.2 C 65.9 56.4 65.7 55.8 65.5 55.3 C 65.2 54.8 64.8 54.5 64.2 54.5 C 63.9 54.5 63.6 54.6 63.4 54.7 C 63.1 54.9 62.9 55.1 62.8 55.3 L 62.8 59.1 C 62.9 59.3 63.1 59.5 63.4 59.6 C 63.6 59.8 63.9 59.8 64.3 59.8 C 64.8 59.8 65.2 59.6 65.5 59.2 C 65.7 58.7 65.9 58.1 65.9 57.4 Z M 68.2 57.4 C 68.2 58.7 67.9 59.7 67.3 60.4 C 66.7 61.2 65.9 61.6 64.9 61.6 C 64.4 61.6 64 61.5 63.7 61.4 C 63.3 61.2 63 60.9 62.8 60.6 L 62.8 64.7 L 60.5 64.7 L 60.5 52.9 L 62.6 52.9 L 62.7 53.9 C 62.9 53.5 63.2 53.2 63.6 53 C 64 52.8 64.4 52.7 64.8 52.7 C 65.9 52.7 66.7 53.1 67.3 54 C 67.9 54.8 68.2 55.9 68.2 57.2 L 68.2 57.4"/>
<path d="M 75 57.2 C 75 56.4 74.8 55.7 74.6 55.2 C 74.3 54.7 73.9 54.5 73.3 54.5 C 73 54.5 72.7 54.6 72.4 54.7 C 72.2 54.9 72 55.1 71.9 55.4 L 71.9 59 C 72 59.3 72.2 59.5 72.4 59.6 C 72.7 59.8 73 59.8 73.4 59.8 C 74 59.8 74.4 59.6 74.6 59.2 C 74.8 58.8 75 58.2 75 57.4 Z M 77.2 57.4 C 77.2 58.7 77 59.7 76.4 60.5 C 75.8 61.2 75 61.6 73.9 61.6 C 73.5 61.6 73 61.5 72.7 61.3 C 72.3 61.1 72 60.8 71.7 60.4 L 71.5 61.4 L 69.6 61.4 L 69.6 49.1 L 71.9 49.1 L 71.9 53.8 C 72.1 53.4 72.4 53.2 72.7 53 C 73.1 52.8 73.5 52.7 73.9 52.7 C 75 52.7 75.8 53.1 76.4 53.9 C 77 54.8 77.2 55.9 77.2 57.2 L 77.2 57.4"/>
<path d="M 82.2 54.5 C 81.8 54.5 81.5 54.7 81.2 55 C 81 55.3 80.8 55.7 80.8 56.3 L 80.8 56.3 L 83.6 56.3 L 83.6 56.1 C 83.6 55.6 83.5 55.2 83.3 54.9 C 83 54.6 82.7 54.5 82.2 54.5 Z M 82.4 61.6 C 81.2 61.6 80.2 61.2 79.5 60.4 C 78.8 59.6 78.4 58.6 78.4 57.4 L 78.4 57.1 C 78.4 55.8 78.7 54.8 79.4 53.9 C 80.1 53.1 81.1 52.7 82.2 52.7 C 83.4 52.7 84.3 53.1 84.9 53.8 C 85.5 54.5 85.8 55.4 85.8 56.6 L 85.8 57.8 L 80.8 57.8 L 80.8 57.9 C 80.8 58.5 81 58.9 81.3 59.3 C 81.6 59.6 82.1 59.8 82.7 59.8 C 83.2 59.8 83.6 59.8 83.9 59.7 C 84.3 59.6 84.6 59.4 85 59.2 L 85.7 60.6 C 85.3 60.9 84.9 61.1 84.3 61.3 C 83.7 61.5 83.1 61.6 82.4 61.6"/>
<path d="M 91.6 54.9 L 90.8 54.8 C 90.5 54.8 90.2 54.9 90 55.1 C 89.7 55.2 89.6 55.4 89.5 55.7 L 89.5 61.4 L 87.2 61.4 L 87.2 52.9 L 89.3 52.9 L 89.4 54.1 C 89.6 53.7 89.9 53.3 90.2 53.1 C 90.5 52.8 90.9 52.7 91.3 52.7 C 91.4 52.7 91.5 52.7 91.6 52.8 C 91.7 52.8 91.8 52.8 91.9 52.8 L 91.6 54.9"/>
<path d="M 97.3 54.9 L 96.4 54.8 C 96.1 54.8 95.8 54.9 95.6 55.1 C 95.4 55.2 95.2 55.4 95.1 55.7 L 95.1 61.4 L 92.8 61.4 L 92.8 52.9 L 94.9 52.9 L 95 54.1 C 95.2 53.7 95.5 53.3 95.8 53.1 C 96.1 52.8 96.5 52.7 96.9 52.7 C 97 52.7 97.1 52.7 97.2 52.8 C 97.3 52.8 97.4 52.8 97.5 52.8 L 97.3 54.9"/>
<path d="M 101.7 57.8 L 101.8 58.3 L 101.9 58.3 L 103.5 52.9 L 106 52.9 L 102.5 62.7 C 102.3 63.3 101.9 63.8 101.5 64.3 C 101.1 64.7 100.5 64.9 99.7 64.9 C 99.5 64.9 99.3 64.9 99.1 64.8 C 99 64.8 98.8 64.8 98.5 64.7 L 98.8 63 C 98.9 63 98.9 63 99 63.1 C 99.1 63.1 99.2 63.1 99.2 63.1 C 99.6 63.1 99.9 63 100.1 62.8 C 100.3 62.6 100.5 62.4 100.6 62.1 L 100.8 61.4 L 97.8 52.9 L 100.3 52.9 L 101.7 57.8"/>
<path d="M 113.4 55.5 L 115.6 55.5 C 116.3 55.5 116.8 55.3 117.1 55 C 117.4 54.6 117.6 54.2 117.6 53.6 C 117.6 53.1 117.4 52.6 117.1 52.2 C 116.8 51.9 116.3 51.7 115.6 51.7 L 113.4 51.7 Z M 113.4 57.3 L 113.4 61.4 L 111.1 61.4 L 111.1 49.9 L 115.6 49.9 C 116.9 49.9 118 50.3 118.7 50.9 C 119.5 51.6 119.9 52.5 119.9 53.6 C 119.9 54.7 119.5 55.6 118.7 56.3 C 118 56.9 116.9 57.3 115.6 57.3 L 113.4 57.3"/>
<path d="M 123.8 61.4 L 121.5 61.4 L 121.5 52.9 L 123.8 52.9 Z M 123.8 50.8 L 121.5 50.8 L 121.5 49.1 L 123.8 49.1 L 123.8 50.8"/>
<path d="M 127.2 51.4 C 126.4 51.4 125.7 50.7 125.7 49.9 C 125.7 49.1 126.4 48.4 127.2 48.4 C 128 48.4 128.7 49.1 128.7 49.9 C 128.7 50.7 128 51.4 127.2 51.4 Z M 127.2 48.1 C 126.2 48.1 125.4 48.9 125.4 49.9 C 125.4 50.9 126.2 51.7 127.2 51.7 C 128.2 51.7 129 50.9 129 49.9 C 129 48.9 128.2 48.1 127.2 48.1"/>
<path d="M 126.9 49.8 L 127.3 49.8 C 127.5 49.8 127.6 49.7 127.6 49.5 C 127.6 49.3 127.5 49.2 127.3 49.2 L 126.9 49.2 Z M 126.4 48.9 L 127.5 48.9 C 127.8 48.9 128 49.1 128 49.4 C 128 49.7 127.9 49.8 127.7 49.9 L 127.7 49.9 C 127.9 50 128 50.2 128 50.4 C 128 50.5 128 50.7 128.1 50.8 L 127.7 50.8 C 127.6 50.7 127.6 50.5 127.6 50.4 C 127.6 50.2 127.5 50.1 127.3 50.1 L 126.9 50.1 L 126.9 50.8 L 126.4 50.8 L 126.4 48.9"/>
</g>
</svg>
