<?xml version="1.0" encoding="UTF-8"?>
<svg xmlns="http://www.w3.org/2000/svg" xmlns:xlink="http://www.w3.org/1999/xlink" width="128px" height="128px" viewBox="0 0 128 128" version="1.1">
<g>
<path d="M 7.3 44 C 7.1 44 6.9 44.1 6.7 44.2 C 6.2 44 5.7 44 5.2 44.4 C 4.5 44.3 4.3 44.5 4.1 44.7 C 4 44.7 3 44.5 2.5 45.2 C 1.4 45.1 1 45.9 1.4 46.6 C 1.2 47 1 47.3 1.5 48 C 1.3 48.4 1.4 48.8 1.9 49.3 C 1.8 49.8 2 50.2 2.4 50.5 C 2.4 51.2 3.1 51.6 3.3 51.8 C 3.4 52.2 3.6 52.6 4.5 52.8 C 4.6 53.5 5.1 53.6 5.6 53.7 C 4 54.7 2.5 55.9 2.6 59 L 2.3 59.4 C 0.4 60.6 -1.3 64.3 1.4 67.2 C 1.6 68.2 1.8 68.9 2.1 69.6 C 2.5 72.6 5 74 5.7 74.2 C 6.7 74.9 7.7 75.6 9.2 76.1 C 10.5 77.5 11.9 78 13.4 78 C 13.4 78 13.4 78 13.5 78 C 14.9 78 16.4 77.5 17.7 76.1 C 19.1 75.6 20.2 74.9 21.1 74.2 C 21.8 74 24.4 72.6 24.7 69.6 C 25 68.9 25.3 68.2 25.5 67.2 C 28.1 64.3 26.4 60.6 24.5 59.4 L 24.3 59 C 24.3 55.9 22.9 54.7 21.2 53.7 C 21.7 53.6 22.2 53.5 22.4 52.8 C 23.2 52.6 23.4 52.2 23.5 51.8 C 23.7 51.6 24.5 51.2 24.4 50.5 C 24.8 50.2 25.1 49.8 24.9 49.3 C 25.4 48.8 25.5 48.4 25.3 48 C 25.9 47.3 25.6 47 25.4 46.6 C 25.8 45.9 25.4 45.1 24.3 45.2 C 23.9 44.5 22.9 44.7 22.7 44.7 C 22.5 44.5 22.3 44.3 21.6 44.4 C 21.2 44 20.7 44 20.2 44.2 C 19.5 43.8 19.1 44.1 18.7 44.3 C 17.9 44 17.7 44.4 17.4 44.5 C 16.6 44.3 16.3 44.7 15.9 45.1 L 15.5 45.1 C 14.2 45.8 13.6 47.3 13.4 48 C 13.2 47.3 12.6 45.8 11.4 45.1 L 10.9 45.1 C 10.5 44.7 10.3 44.3 9.5 44.5 C 9.1 44.4 8.9 44 8.2 44.3 C 7.9 44.2 7.6 44 7.3 44"/>
<path fill="#6cc04a" d="M 4.8 47.2 C 8.1 48.8 10 50.2 11 51.3 C 10.5 53.4 7.7 53.5 6.7 53.5 C 6.9 53.4 7.1 53.2 7.2 53.1 C 6.9 52.9 6 53.1 5.4 52.7 C 5.6 52.7 5.7 52.6 5.8 52.4 C 5.3 52.2 4.6 52.1 4.2 51.8 C 4.4 51.8 4.6 51.8 4.9 51.6 C 4.4 51.3 3.8 51.1 3.4 50.7 C 3.6 50.7 3.9 50.7 4 50.6 C 3.5 50.3 3.1 49.9 2.8 49.6 C 3.2 49.6 3.3 49.6 3.4 49.5 C 3 49.1 2.6 48.8 2.4 48.4 C 2.6 48.5 2.9 48.5 3.1 48.4 C 3 48.1 2.4 47.9 2.1 47.3 C 2.4 47.3 2.7 47.3 2.8 47.3 C 2.7 46.7 2.4 46.4 2.2 46.1 C 2.8 46 3.8 46.1 3.8 46 L 3.4 45.6 C 4 45.4 4.6 45.6 5.1 45.8 C 5.3 45.6 5.1 45.4 4.9 45.2 C 5.4 45.3 5.9 45.4 6.3 45.5 C 6.5 45.3 6.2 45.1 6 44.9 C 6.8 45.1 7.1 45.3 7.5 45.5 C 7.7 45.3 7.5 45.1 7.3 44.9 C 8 45.1 8.3 45.4 8.6 45.7 C 8.7 45.5 8.9 45.4 8.7 45 C 9.1 45.3 9.5 45.6 9.7 45.9 C 10 45.8 9.9 45.5 9.9 45.3 C 10.3 45.7 10.6 46.1 11 46.4 C 11.1 46.4 11.1 46.2 11.2 45.9 C 12.3 47 13.8 49.7 11.6 50.7 C 9.7 49.1 7.4 48 4.8 47.2 L 4.8 47.2"/>
<path fill="#6cc04a" d="M 22.1 47.2 C 18.8 48.8 16.9 50.2 15.9 51.3 C 16.4 53.4 19.2 53.5 20.2 53.5 C 20 53.4 19.8 53.2 19.8 53.1 C 20 52.9 20.9 53.1 21.6 52.7 C 21.3 52.7 21.2 52.6 21.1 52.4 C 21.7 52.2 22.3 52.1 22.7 51.8 C 22.5 51.8 22.3 51.8 22 51.6 C 22.6 51.3 23.1 51.1 23.6 50.7 C 23.3 50.7 23 50.7 22.9 50.6 C 23.4 50.3 23.8 49.9 24.2 49.6 C 23.8 49.6 23.6 49.6 23.5 49.5 C 23.9 49.1 24.4 48.8 24.6 48.4 C 24.3 48.5 24 48.5 23.8 48.4 C 24 48.1 24.5 47.9 24.8 47.3 C 24.5 47.3 24.2 47.3 24.1 47.3 C 24.3 46.7 24.5 46.4 24.7 46.1 C 24.1 46 23.1 46.1 23.2 46 L 23.6 45.6 C 22.9 45.4 22.3 45.6 21.8 45.8 C 21.6 45.6 21.8 45.4 22.1 45.2 C 21.6 45.3 21.1 45.4 20.6 45.5 C 20.4 45.3 20.8 45.1 21 44.9 C 20.1 45.1 19.8 45.3 19.4 45.5 C 19.2 45.3 19.4 45.1 19.6 44.9 C 19 45.1 18.7 45.4 18.3 45.7 C 18.2 45.5 18 45.4 18.2 45 C 17.8 45.3 17.5 45.6 17.2 45.9 C 16.9 45.8 17.1 45.5 17.1 45.3 C 16.6 45.7 16.3 46.1 15.9 46.4 C 15.9 46.4 15.8 46.2 15.8 45.9 C 14.7 47 13.1 49.7 15.4 50.7 C 17.3 49.1 19.6 48 22.1 47.2"/>
<path fill="#c51a4a" d="M 17.4 68.6 C 17.4 70.6 15.7 72.2 13.5 72.2 C 11.4 72.2 9.6 70.6 9.6 68.7 C 9.6 68.7 9.6 68.6 9.6 68.6 C 9.6 66.7 11.3 65.1 13.5 65.1 C 15.6 65 17.4 66.6 17.4 68.6 C 17.4 68.6 17.4 68.6 17.4 68.6"/>
<path fill="#c51a4a" d="M 11.3 58.5 C 12.9 59.5 13.2 61.9 12 63.8 C 10.7 65.6 8.4 66.3 6.8 65.3 C 5.2 64.2 4.9 61.9 6.1 60 C 7.4 58.1 9.7 57.4 11.3 58.5"/>
<path fill="#c51a4a" d="M 15.7 58.3 C 14.1 59.3 13.8 61.7 15 63.6 C 16.3 65.5 18.6 66.1 20.2 65.1 C 21.9 64 22.1 61.7 20.9 59.8 C 19.6 57.9 17.3 57.2 15.7 58.3"/>
<path fill="#c51a4a" d="M 3.4 60.2 C 5.1 59.7 3.9 67.3 2.5 66.7 C 1 65.5 0.5 61.8 3.4 60.2"/>
<path fill="#c51a4a" d="M 23.5 60.1 C 21.8 59.6 22.9 67.2 24.3 66.6 C 25.9 65.4 26.4 61.7 23.5 60.1"/>
<path fill="#c51a4a" d="M 17.7 54.4 C 20.7 53.9 23.2 55.7 23.1 58.9 C 23 60.1 16.6 54.6 17.7 54.4"/>
<path fill="#c51a4a" d="M 9.3 54.3 C 6.3 53.8 3.8 55.6 3.9 58.8 C 4 60.1 10.4 54.5 9.3 54.3"/>
<path fill="#c51a4a" d="M 13.5 53.6 C 11.7 53.5 10 54.9 10 55.7 C 10 56.6 11.4 57.6 13.5 57.6 C 15.7 57.7 17 56.9 17.1 55.9 C 17.1 54.7 15.1 53.5 13.5 53.6"/>
<path fill="#c51a4a" d="M 13.6 73.3 C 15.2 73.3 17.3 73.8 17.3 74.6 C 17.3 75.3 15.4 77 13.5 76.9 C 11.6 77 9.7 75.4 9.7 74.8 C 9.7 73.9 12.1 73.3 13.6 73.3"/>
<path fill="#c51a4a" d="M 7.8 68.9 C 8.9 70.2 9.5 72.5 8.5 73.2 C 7.6 73.7 5.5 73.5 4 71.4 C 3 69.6 3.1 67.7 3.8 67.2 C 4.9 66.5 6.6 67.4 7.8 68.9"/>
<path fill="#c51a4a" d="M 19.1 68.4 C 17.9 69.8 17.2 72.4 18.1 73.2 C 18.9 73.9 21.2 73.8 22.8 71.5 C 24 69.9 23.6 67.4 22.9 66.7 C 21.9 65.9 20.4 66.9 19.1 68.4"/>
<path d="M 32.4 59.1 L 34.4 59.1 C 35 59.1 35.5 58.9 35.8 58.6 C 36.1 58.4 36.3 58 36.3 57.4 C 36.3 56.9 36.1 56.5 35.8 56.2 C 35.5 55.9 35 55.7 34.4 55.7 L 32.4 55.7 Z M 32.4 60.8 L 32.4 65.4 L 30.1 65.4 L 30.1 53.9 L 34.4 53.9 C 35.7 53.9 36.7 54.2 37.5 54.8 C 38.2 55.4 38.6 56.3 38.6 57.3 C 38.6 57.9 38.4 58.4 38.1 58.9 C 37.8 59.3 37.4 59.6 36.8 59.9 C 37.4 60.1 37.9 60.4 38.2 60.9 C 38.5 61.4 38.7 61.9 38.7 62.6 L 38.7 63.5 C 38.7 63.8 38.7 64.1 38.8 64.5 C 38.9 64.8 39 65.1 39.2 65.3 L 39.2 65.4 L 36.9 65.4 C 36.7 65.3 36.5 65 36.5 64.6 C 36.4 64.2 36.4 63.8 36.4 63.5 L 36.4 62.7 C 36.4 62.1 36.2 61.6 35.9 61.3 C 35.6 61 35.1 60.8 34.6 60.8 L 32.4 60.8"/>
<path d="M 43.4 63.9 C 43.8 63.9 44.2 63.8 44.5 63.6 C 44.8 63.4 45 63.2 45.2 62.9 L 45.2 61.7 L 43.9 61.7 C 43.4 61.7 43 61.8 42.8 62.1 C 42.5 62.3 42.4 62.6 42.4 62.9 C 42.4 63.2 42.5 63.5 42.7 63.6 C 42.9 63.8 43.1 63.9 43.4 63.9 Z M 45.5 65.4 C 45.5 65.2 45.4 65 45.3 64.8 C 45.3 64.6 45.2 64.4 45.2 64.2 C 45 64.6 44.7 64.9 44.3 65.2 C 43.9 65.5 43.4 65.6 42.9 65.6 C 42 65.6 41.3 65.4 40.8 64.9 C 40.3 64.4 40.1 63.8 40.1 63 C 40.1 62.2 40.4 61.5 41.1 61.1 C 41.7 60.6 42.6 60.4 43.9 60.4 L 45.2 60.4 L 45.2 59.7 C 45.2 59.3 45.1 59 44.8 58.7 C 44.6 58.5 44.3 58.4 43.9 58.4 C 43.5 58.4 43.2 58.5 43 58.7 C 42.8 58.9 42.7 59.1 42.7 59.4 L 40.5 59.4 L 40.5 59.4 C 40.5 58.7 40.8 58 41.4 57.5 C 42.1 57 43 56.7 44 56.7 C 45.1 56.7 45.9 57 46.5 57.5 C 47.1 58 47.5 58.8 47.5 59.7 L 47.5 63.3 C 47.5 63.7 47.5 64 47.6 64.4 C 47.6 64.7 47.7 65.1 47.8 65.4 L 45.5 65.4"/>
<path d="M 53.8 63.1 C 53.8 62.8 53.7 62.6 53.4 62.4 C 53.2 62.2 52.7 62.1 52.1 61.9 C 51.1 61.7 50.3 61.4 49.8 61 C 49.3 60.6 49 60.1 49 59.4 C 49 58.6 49.3 58 50 57.5 C 50.6 57 51.4 56.7 52.4 56.7 C 53.5 56.7 54.4 57 55 57.5 C 55.7 58 56 58.6 55.9 59.4 L 55.9 59.5 L 53.7 59.5 C 53.7 59.1 53.6 58.9 53.4 58.6 C 53.2 58.4 52.8 58.3 52.4 58.3 C 52.1 58.3 51.8 58.4 51.6 58.6 C 51.3 58.8 51.2 59 51.2 59.3 C 51.2 59.5 51.3 59.7 51.6 59.9 C 51.8 60.1 52.2 60.2 52.9 60.4 C 54 60.6 54.7 60.9 55.3 61.3 C 55.8 61.7 56 62.3 56 63 C 56 63.8 55.7 64.4 55 64.9 C 54.4 65.4 53.5 65.6 52.4 65.6 C 51.3 65.6 50.4 65.3 49.8 64.7 C 49.1 64.2 48.8 63.5 48.8 62.8 L 48.8 62.7 L 50.9 62.7 C 50.9 63.2 51.1 63.5 51.4 63.7 C 51.7 63.9 52 64 52.5 64 C 52.9 64 53.2 63.9 53.5 63.8 C 53.7 63.6 53.8 63.4 53.8 63.1"/>
<path d="M 62.9 61.2 C 62.9 60.4 62.7 59.8 62.5 59.3 C 62.2 58.8 61.8 58.5 61.2 58.5 C 60.9 58.5 60.6 58.6 60.4 58.7 C 60.1 58.9 59.9 59.1 59.8 59.3 L 59.8 63.1 C 59.9 63.3 60.1 63.5 60.4 63.6 C 60.6 63.8 60.9 63.8 61.3 63.8 C 61.8 63.8 62.2 63.6 62.5 63.2 C 62.7 62.7 62.9 62.1 62.9 61.4 Z M 65.2 61.4 C 65.2 62.7 64.9 63.7 64.3 64.4 C 63.7 65.2 62.9 65.6 61.9 65.6 C 61.4 65.6 61 65.5 60.7 65.4 C 60.3 65.2 60 64.9 59.8 64.6 L 59.8 68.7 L 57.5 68.7 L 57.5 56.9 L 59.6 56.9 L 59.7 57.9 C 59.9 57.5 60.2 57.2 60.6 57 C 61 56.8 61.4 56.7 61.8 56.7 C 62.9 56.7 63.7 57.1 64.3 58 C 64.9 58.8 65.2 59.9 65.2 61.2 L 65.2 61.4"/>
<path d="M 72 61.2 C 72 60.4 71.8 59.7 71.6 59.2 C 71.3 58.7 70.9 58.5 70.3 58.5 C 70 58.5 69.7 58.6 69.4 58.7 C 69.2 58.9 69 59.1 68.9 59.4 L 68.9 63 C 69 63.3 69.2 63.5 69.4 63.6 C 69.7 63.8 70 63.8 70.4 63.8 C 71 63.8 71.4 63.6 71.6 63.2 C 71.8 62.8 72 62.2 72 61.4 Z M 74.2 61.4 C 74.2 62.7 74 63.7 73.4 64.5 C 72.8 65.2 72 65.6 70.9 65.6 C 70.5 65.6 70 65.5 69.7 65.3 C 69.3 65.1 69 64.8 68.7 64.4 L 68.5 65.4 L 66.6 65.4 L 66.6 53.1 L 68.9 53.1 L 68.9 57.8 C 69.1 57.4 69.4 57.2 69.7 57 C 70.1 56.8 70.5 56.7 70.9 56.7 C 72 56.7 72.8 57.1 73.4 57.9 C 74 58.8 74.2 59.9 74.2 61.2 L 74.2 61.4"/>
<path d="M 79.2 58.5 C 78.8 58.5 78.5 58.7 78.2 59 C 78 59.3 77.8 59.7 77.8 60.3 L 77.8 60.3 L 80.6 60.3 L 80.6 60.1 C 80.6 59.6 80.5 59.2 80.3 58.9 C 80 58.6 79.7 58.5 79.2 58.5 Z M 79.4 65.6 C 78.2 65.6 77.2 65.2 76.5 64.4 C 75.8 63.6 75.4 62.6 75.4 61.4 L 75.4 61.1 C 75.4 59.8 75.7 58.8 76.4 57.9 C 77.1 57.1 78.1 56.7 79.2 56.7 C 80.4 56.7 81.3 57.1 81.9 57.8 C 82.5 58.5 82.8 59.4 82.8 60.6 L 82.8 61.8 L 77.8 61.8 L 77.8 61.9 C 77.8 62.5 78 62.9 78.3 63.3 C 78.6 63.6 79.1 63.8 79.7 63.8 C 80.2 63.8 80.6 63.8 80.9 63.7 C 81.3 63.6 81.6 63.4 82 63.2 L 82.7 64.6 C 82.3 64.9 81.9 65.1 81.3 65.3 C 80.7 65.5 80.1 65.6 79.4 65.6"/>
<path d="M 88.6 58.9 L 87.8 58.8 C 87.5 58.8 87.2 58.9 87 59.1 C 86.7 59.2 86.6 59.4 86.5 59.7 L 86.5 65.4 L 84.2 65.4 L 84.2 56.9 L 86.3 56.9 L 86.4 58.1 C 86.6 57.7 86.9 57.3 87.2 57.1 C 87.5 56.8 87.9 56.7 88.3 56.7 C 88.4 56.7 88.5 56.7 88.6 56.8 C 88.7 56.8 88.8 56.8 88.9 56.8 L 88.6 58.9"/>
<path d="M 94.3 58.9 L 93.4 58.8 C 93.1 58.8 92.8 58.9 92.6 59.1 C 92.4 59.2 92.2 59.4 92.1 59.7 L 92.1 65.4 L 89.8 65.4 L 89.8 56.9 L 91.9 56.9 L 92 58.1 C 92.2 57.7 92.5 57.3 92.8 57.1 C 93.1 56.8 93.5 56.7 93.9 56.7 C 94 56.7 94.1 56.7 94.2 56.8 C 94.3 56.8 94.4 56.8 94.5 56.8 L 94.3 58.9"/>
<path d="M 98.7 61.8 L 98.8 62.3 L 98.9 62.3 L 100.5 56.9 L 103 56.9 L 99.5 66.7 C 99.3 67.3 98.9 67.8 98.5 68.3 C 98.1 68.7 97.5 68.9 96.7 68.9 C 96.5 68.9 96.3 68.9 96.1 68.8 C 96 68.8 95.8 68.8 95.5 68.7 L 95.8 67 C 95.9 67 95.9 67 96 67.1 C 96.1 67.1 96.2 67.1 96.2 67.1 C 96.6 67.1 96.9 67 97.1 66.8 C 97.3 66.6 97.5 66.4 97.6 66.1 L 97.8 65.4 L 94.8 56.9 L 97.3 56.9 L 98.7 61.8"/>
<path d="M 110.4 59.5 L 112.6 59.5 C 113.3 59.5 113.8 59.3 114.1 59 C 114.4 58.6 114.6 58.2 114.6 57.6 C 114.6 57.1 114.4 56.6 114.1 56.2 C 113.8 55.9 113.3 55.7 112.6 55.7 L 110.4 55.7 Z M 110.4 61.3 L 110.4 65.4 L 108.1 65.4 L 108.1 53.9 L 112.6 53.9 C 113.9 53.9 115 54.3 115.7 54.9 C 116.5 55.6 116.9 56.5 116.9 57.6 C 116.9 58.7 116.5 59.6 115.7 60.3 C 115 60.9 113.9 61.3 112.6 61.3 L 110.4 61.3"/>
<path d="M 120.8 65.4 L 118.5 65.4 L 118.5 56.9 L 120.8 56.9 Z M 120.8 54.8 L 118.5 54.8 L 118.5 53.1 L 120.8 53.1 L 120.8 54.8"/>
<path d="M 124.2 55.4 C 123.4 55.4 122.7 54.7 122.7 53.9 C 122.7 53.1 123.4 52.4 124.2 52.4 C 125 52.4 125.7 53.1 125.7 53.9 C 125.7 54.7 125 55.4 124.2 55.4 Z M 124.2 52.1 C 123.2 52.1 122.4 52.9 122.4 53.9 C 122.4 54.9 123.2 55.7 124.2 55.7 C 125.2 55.7 126 54.9 126 53.9 C 126 52.9 125.2 52.1 124.2 52.1"/>
<path d="M 123.9 53.8 L 124.3 53.8 C 124.5 53.8 124.6 53.7 124.6 53.5 C 124.6 53.3 124.5 53.2 124.3 53.2 L 123.9 53.2 Z M 123.4 52.9 L 124.5 52.9 C 124.8 52.9 125 53.1 125 53.4 C 125 53.7 124.9 53.8 124.7 53.9 L 124.7 53.9 C 124.9 54 125 54.2 125 54.4 C 125 54.5 125 54.7 125.1 54.8 L 124.7 54.8 C 124.6 54.7 124.6 54.5 124.6 54.4 C 124.6 54.2 124.5 54.1 124.3 54.1 L 123.9 54.1 L 123.9 54.8 L 123.4 54.8 L 123.4 52.9"/>
</g>
</svg>
