<?xml version="1.0" encoding="UTF-8"?>
<svg xmlns="http://www.w3.org/2000/svg" xmlns:xlink="http://www.w3.org/1999/xlink" width="128px" height="128px" viewBox="0 0 128 128" version="1.1">
<g id="surface1">
<path d="M 7.265625 0 C 7.09375 0.0078125 6.90625 0.0703125 6.695312 0.234375 C 6.175781 0.0351562 5.671875 -0.03125 5.222656 0.371094 C 4.53125 0.28125 4.304688 0.464844 4.132812 0.683594 C 3.980469 0.679688 2.992188 0.527344 2.539062 1.195312 C 1.398438 1.0625 1.039062 1.859375 1.445312 2.605469 C 1.214844 2.960938 0.972656 3.316406 1.515625 3.996094 C 1.324219 4.375 1.445312 4.785156 1.898438 5.285156 C 1.777344 5.816406 2.011719 6.191406 2.433594 6.484375 C 2.355469 7.214844 3.109375 7.640625 3.335938 7.789062 C 3.421875 8.214844 3.601562 8.617188 4.460938 8.839844 C 4.605469 9.472656 5.121094 9.582031 5.621094 9.714844 C 3.964844 10.667969 2.546875 11.921875 2.554688 15.003906 L 2.3125 15.433594 C 0.414062 16.578125 -1.292969 20.253906 1.378906 23.246094 C 1.554688 24.179688 1.84375 24.851562 2.105469 25.597656 C 2.496094 28.59375 5.039062 30 5.710938 30.164062 C 6.691406 30.90625 7.738281 31.613281 9.15625 32.105469 C 10.492188 33.46875 11.9375 33.992188 13.390625 33.988281 C 13.414062 33.988281 13.433594 33.988281 13.457031 33.988281 C 14.910156 33.992188 16.355469 33.46875 17.691406 32.105469 C 19.109375 31.613281 20.15625 30.90625 21.136719 30.164062 C 21.808594 30 24.351562 28.59375 24.742188 25.597656 C 25 24.851562 25.292969 24.179688 25.46875 23.246094 C 28.140625 20.253906 26.433594 16.578125 24.535156 15.433594 L 24.289062 15.003906 C 24.300781 11.921875 22.878906 10.667969 21.226562 9.714844 C 21.726562 9.582031 22.242188 9.472656 22.386719 8.839844 C 23.246094 8.617188 23.425781 8.214844 23.511719 7.789062 C 23.738281 7.640625 24.492188 7.214844 24.410156 6.484375 C 24.832031 6.191406 25.070312 5.816406 24.949219 5.285156 C 25.402344 4.785156 25.523438 4.375 25.328125 3.996094 C 25.875 3.316406 25.632812 2.960938 25.398438 2.605469 C 25.808594 1.859375 25.449219 1.0625 24.308594 1.195312 C 23.855469 0.527344 22.867188 0.679688 22.714844 0.683594 C 22.542969 0.464844 22.316406 0.28125 21.621094 0.371094 C 21.171875 -0.03125 20.667969 0.0351562 20.152344 0.234375 C 19.535156 -0.246094 19.128906 0.140625 18.660156 0.285156 C 17.914062 0.0429688 17.746094 0.375 17.378906 0.507812 C 16.566406 0.339844 16.320312 0.710938 15.929688 1.101562 L 15.476562 1.09375 C 14.246094 1.808594 13.636719 3.269531 13.421875 4.019531 C 13.207031 3.269531 12.597656 1.808594 11.371094 1.09375 L 10.917969 1.101562 C 10.527344 0.710938 10.28125 0.339844 9.46875 0.507812 C 9.101562 0.375 8.929688 0.0429688 8.183594 0.285156 C 7.878906 0.191406 7.597656 -0.0078125 7.265625 0 "/>
<path fill="#6cc04a" d="M 4.847656 3.152344 C 8.105469 4.816406 9.996094 6.164062 11.03125 7.308594 C 10.503906 9.417969 7.734375 9.515625 6.71875 9.457031 C 6.925781 9.359375 7.101562 9.246094 7.160156 9.070312 C 6.90625 8.890625 6.007812 9.050781 5.378906 8.699219 C 5.621094 8.652344 5.730469 8.601562 5.84375 8.425781 C 5.25 8.238281 4.609375 8.074219 4.234375 7.765625 C 4.4375 7.765625 4.628906 7.808594 4.894531 7.628906 C 4.359375 7.34375 3.792969 7.117188 3.351562 6.683594 C 3.625 6.675781 3.921875 6.679688 4.007812 6.578125 C 3.523438 6.28125 3.109375 5.949219 2.769531 5.582031 C 3.15625 5.628906 3.320312 5.589844 3.410156 5.523438 C 3.042969 5.148438 2.578125 4.835938 2.355469 4.375 C 2.640625 4.472656 2.902344 4.507812 3.089844 4.363281 C 2.964844 4.085938 2.429688 3.917969 2.121094 3.265625 C 2.421875 3.292969 2.742188 3.332031 2.804688 3.265625 C 2.664062 2.703125 2.425781 2.382812 2.191406 2.054688 C 2.835938 2.046875 3.8125 2.058594 3.765625 2.003906 L 3.367188 1.601562 C 4 1.433594 4.640625 1.628906 5.109375 1.773438 C 5.320312 1.609375 5.105469 1.398438 4.851562 1.1875 C 5.382812 1.257812 5.867188 1.378906 6.304688 1.546875 C 6.539062 1.339844 6.152344 1.132812 5.96875 0.921875 C 6.792969 1.078125 7.144531 1.296875 7.492188 1.515625 C 7.742188 1.273438 7.503906 1.070312 7.335938 0.863281 C 7.957031 1.089844 8.277344 1.386719 8.617188 1.675781 C 8.730469 1.523438 8.90625 1.410156 8.695312 1.042969 C 9.136719 1.296875 9.46875 1.59375 9.71875 1.925781 C 9.992188 1.753906 9.878906 1.515625 9.882812 1.300781 C 10.339844 1.671875 10.632812 2.066406 10.988281 2.449219 C 11.0625 2.398438 11.125 2.222656 11.179688 1.945312 C 12.277344 3 13.828125 5.65625 11.578125 6.707031 C 9.664062 5.144531 7.378906 4.007812 4.847656 3.15625 L 4.847656 3.152344 "/>
<path fill="#6cc04a" d="M 22.089844 3.152344 C 18.835938 4.816406 16.941406 6.164062 15.90625 7.308594 C 16.4375 9.417969 19.207031 9.515625 20.21875 9.457031 C 20.011719 9.359375 19.839844 9.246094 19.777344 9.070312 C 20.03125 8.890625 20.929688 9.050781 21.5625 8.699219 C 21.320312 8.652344 21.207031 8.601562 21.09375 8.425781 C 21.6875 8.238281 22.328125 8.074219 22.703125 7.765625 C 22.5 7.765625 22.3125 7.808594 22.046875 7.628906 C 22.578125 7.34375 23.144531 7.117188 23.585938 6.683594 C 23.3125 6.675781 23.015625 6.679688 22.929688 6.578125 C 23.417969 6.28125 23.828125 5.949219 24.167969 5.582031 C 23.78125 5.628906 23.621094 5.589844 23.527344 5.523438 C 23.894531 5.148438 24.359375 4.835938 24.582031 4.375 C 24.296875 4.472656 24.035156 4.507812 23.847656 4.363281 C 23.972656 4.085938 24.507812 3.917969 24.816406 3.265625 C 24.515625 3.292969 24.195312 3.332031 24.132812 3.265625 C 24.273438 2.699219 24.511719 2.382812 24.746094 2.054688 C 24.101562 2.046875 23.128906 2.058594 23.171875 2.003906 L 23.570312 1.601562 C 22.941406 1.433594 22.296875 1.625 21.828125 1.773438 C 21.621094 1.609375 21.832031 1.398438 22.089844 1.1875 C 21.554688 1.257812 21.070312 1.378906 20.632812 1.546875 C 20.402344 1.339844 20.785156 1.128906 20.972656 0.921875 C 20.144531 1.078125 19.796875 1.296875 19.449219 1.515625 C 19.195312 1.273438 19.433594 1.070312 19.601562 0.863281 C 18.980469 1.089844 18.660156 1.386719 18.320312 1.675781 C 18.207031 1.523438 18.03125 1.410156 18.242188 1.042969 C 17.800781 1.292969 17.46875 1.59375 17.222656 1.925781 C 16.949219 1.753906 17.058594 1.515625 17.058594 1.300781 C 16.597656 1.671875 16.304688 2.066406 15.949219 2.449219 C 15.875 2.398438 15.8125 2.222656 15.757812 1.945312 C 14.660156 3 13.113281 5.65625 15.359375 6.707031 C 17.273438 5.144531 19.558594 4.007812 22.089844 3.152344 "/>
<path fill="#c51a4a" d="M 17.40625 24.632812 C 17.417969 26.601562 15.679688 28.207031 13.527344 28.21875 C 11.375 28.226562 9.621094 26.640625 9.609375 24.671875 C 9.609375 24.660156 9.609375 24.648438 9.609375 24.632812 C 9.597656 22.664062 11.332031 21.0625 13.484375 21.050781 C 15.640625 21.039062 17.394531 22.628906 17.40625 24.597656 C 17.40625 24.609375 17.40625 24.621094 17.40625 24.632812 "/>
<path fill="#c51a4a" d="M 11.328125 14.453125 C 12.941406 15.5 13.234375 17.878906 11.976562 19.765625 C 10.71875 21.648438 8.394531 22.328125 6.777344 21.277344 C 5.160156 20.226562 4.871094 17.851562 6.125 15.964844 C 7.382812 14.082031 9.710938 13.402344 11.328125 14.453125 "/>
<path fill="#c51a4a" d="M 15.6875 14.261719 C 14.070312 15.3125 13.78125 17.691406 15.035156 19.574219 C 16.292969 21.460938 18.621094 22.136719 20.234375 21.085938 C 21.851562 20.039062 22.140625 17.660156 20.886719 15.773438 C 19.628906 13.890625 17.300781 13.214844 15.6875 14.261719 "/>
<path fill="#c51a4a" d="M 3.351562 16.179688 C 5.097656 15.714844 3.941406 23.332031 2.523438 22.707031 C 0.960938 21.460938 0.457031 17.816406 3.351562 16.179688 "/>
<path fill="#c51a4a" d="M 23.507812 16.082031 C 21.765625 15.621094 22.917969 23.238281 24.339844 22.613281 C 25.898438 21.367188 26.402344 17.722656 23.507812 16.082031 "/>
<path fill="#c51a4a" d="M 17.660156 10.402344 C 20.667969 9.898438 23.171875 11.667969 23.070312 14.90625 C 22.972656 16.144531 16.550781 10.585938 17.660156 10.402344 "/>
<path fill="#c51a4a" d="M 9.34375 10.304688 C 6.332031 9.800781 3.828125 11.574219 3.929688 14.8125 C 4.027344 16.050781 10.449219 10.492188 9.34375 10.304688 "/>
<path fill="#c51a4a" d="M 13.488281 9.550781 C 11.691406 9.503906 9.96875 10.871094 9.964844 11.667969 C 9.960938 12.628906 11.382812 13.617188 13.5 13.644531 C 15.664062 13.660156 17.042969 12.851562 17.050781 11.859375 C 17.058594 10.730469 15.082031 9.535156 13.488281 9.550781 "/>
<path fill="#c51a4a" d="M 13.628906 29.324219 C 15.195312 29.257812 17.296875 29.824219 17.300781 30.578125 C 17.324219 31.308594 15.394531 32.960938 13.523438 32.929688 C 11.585938 33.011719 9.6875 31.359375 9.714844 30.785156 C 9.683594 29.941406 12.070312 29.285156 13.628906 29.324219 "/>
<path fill="#c51a4a" d="M 7.832031 24.859375 C 8.945312 26.191406 9.453125 28.53125 8.523438 29.21875 C 7.644531 29.746094 5.503906 29.53125 3.984375 27.367188 C 2.960938 25.550781 3.09375 23.703125 3.8125 23.160156 C 4.890625 22.507812 6.550781 23.386719 7.832031 24.859375 "/>
<path fill="#c51a4a" d="M 19.058594 24.4375 C 17.851562 25.839844 17.179688 28.394531 18.058594 29.214844 C 18.902344 29.855469 21.160156 29.765625 22.828125 27.472656 C 24.042969 25.929688 23.636719 23.355469 22.941406 22.671875 C 21.914062 21.882812 20.4375 22.890625 19.058594 24.4375 "/>
<path d="M 32.398438 15.054688 L 34.378906 15.054688 C 35.023438 15.054688 35.503906 14.917969 35.820312 14.640625 C 36.136719 14.367188 36.296875 13.960938 36.296875 13.425781 C 36.296875 12.898438 36.136719 12.476562 35.820312 12.167969 C 35.503906 11.855469 35.035156 11.699219 34.417969 11.699219 L 32.398438 11.699219 Z M 32.398438 16.832031 L 32.398438 21.433594 L 30.105469 21.433594 L 30.105469 9.921875 L 34.417969 9.921875 C 35.722656 9.921875 36.742188 10.222656 37.480469 10.820312 C 38.214844 11.417969 38.582031 12.25 38.582031 13.320312 C 38.582031 13.917969 38.429688 14.429688 38.117188 14.855469 C 37.808594 15.28125 37.355469 15.628906 36.761719 15.890625 C 37.4375 16.09375 37.921875 16.425781 38.21875 16.894531 C 38.511719 17.367188 38.660156 17.945312 38.660156 18.636719 L 38.660156 19.480469 C 38.660156 19.804688 38.703125 20.140625 38.789062 20.492188 C 38.878906 20.839844 39.023438 21.101562 39.234375 21.269531 L 39.234375 21.433594 L 36.871094 21.433594 C 36.660156 21.265625 36.523438 20.984375 36.460938 20.589844 C 36.398438 20.195312 36.367188 19.820312 36.367188 19.464844 L 36.367188 18.652344 C 36.367188 18.078125 36.210938 17.628906 35.898438 17.3125 C 35.589844 16.992188 35.148438 16.832031 34.582031 16.832031 L 32.398438 16.832031 "/>
<path d="M 43.445312 19.894531 C 43.847656 19.894531 44.207031 19.792969 44.523438 19.59375 C 44.835938 19.394531 45.046875 19.160156 45.160156 18.898438 L 45.160156 17.6875 L 43.878906 17.6875 C 43.390625 17.6875 43.023438 17.808594 42.769531 18.054688 C 42.519531 18.300781 42.394531 18.597656 42.394531 18.945312 C 42.394531 19.230469 42.488281 19.457031 42.675781 19.632812 C 42.863281 19.804688 43.121094 19.894531 43.445312 19.894531 Z M 45.542969 21.433594 C 45.460938 21.242188 45.386719 21.035156 45.328125 20.820312 C 45.265625 20.601562 45.222656 20.382812 45.199219 20.15625 C 44.960938 20.570312 44.652344 20.917969 44.265625 21.191406 C 43.882812 21.464844 43.421875 21.601562 42.886719 21.601562 C 41.996094 21.601562 41.3125 21.371094 40.828125 20.910156 C 40.347656 20.449219 40.105469 19.820312 40.105469 19.023438 C 40.105469 18.183594 40.425781 17.535156 41.070312 17.074219 C 41.710938 16.613281 42.648438 16.382812 43.878906 16.382812 L 45.160156 16.382812 L 45.160156 15.703125 C 45.160156 15.289062 45.050781 14.972656 44.835938 14.746094 C 44.621094 14.519531 44.304688 14.40625 43.886719 14.40625 C 43.515625 14.40625 43.226562 14.496094 43.027344 14.679688 C 42.824219 14.859375 42.722656 15.113281 42.722656 15.433594 L 40.507812 15.425781 L 40.5 15.378906 C 40.464844 14.65625 40.773438 14.03125 41.433594 13.507812 C 42.09375 12.984375 42.960938 12.722656 44.035156 12.722656 C 45.050781 12.722656 45.875 12.980469 46.511719 13.5 C 47.144531 14.019531 47.460938 14.757812 47.460938 15.71875 L 47.460938 19.253906 C 47.460938 19.652344 47.492188 20.03125 47.550781 20.382812 C 47.609375 20.738281 47.707031 21.085938 47.839844 21.433594 L 45.542969 21.433594 "/>
<path d="M 53.792969 19.078125 C 53.792969 18.824219 53.671875 18.605469 53.429688 18.421875 C 53.183594 18.238281 52.734375 18.074219 52.074219 17.933594 C 51.066406 17.726562 50.308594 17.421875 49.796875 17.019531 C 49.289062 16.617188 49.03125 16.066406 49.03125 15.371094 C 49.03125 14.632812 49.339844 14.007812 49.957031 13.492188 C 50.570312 12.976562 51.394531 12.722656 52.425781 12.722656 C 53.511719 12.722656 54.375 12.976562 55.015625 13.488281 C 55.65625 14 55.964844 14.644531 55.9375 15.425781 L 55.921875 15.472656 L 53.707031 15.472656 C 53.707031 15.128906 53.597656 14.851562 53.378906 14.632812 C 53.164062 14.417969 52.84375 14.308594 52.425781 14.308594 C 52.054688 14.308594 51.761719 14.402344 51.550781 14.582031 C 51.339844 14.765625 51.230469 14.992188 51.230469 15.265625 C 51.230469 15.53125 51.34375 15.746094 51.566406 15.914062 C 51.789062 16.085938 52.242188 16.234375 52.921875 16.367188 C 53.96875 16.578125 54.746094 16.886719 55.253906 17.296875 C 55.761719 17.703125 56.015625 18.265625 56.015625 18.984375 C 56.015625 19.753906 55.6875 20.382812 55.035156 20.871094 C 54.378906 21.359375 53.515625 21.601562 52.441406 21.601562 C 51.3125 21.601562 50.417969 21.3125 49.757812 20.734375 C 49.101562 20.160156 48.789062 19.5 48.820312 18.761719 L 48.835938 18.714844 L 50.933594 18.714844 C 50.949219 19.171875 51.097656 19.507812 51.382812 19.710938 C 51.664062 19.917969 52.035156 20.019531 52.488281 20.019531 C 52.914062 20.019531 53.238281 19.9375 53.460938 19.765625 C 53.683594 19.597656 53.792969 19.367188 53.792969 19.078125 "/>
<path d="M 62.867188 17.214844 C 62.867188 16.410156 62.734375 15.753906 62.46875 15.253906 C 62.199219 14.75 61.792969 14.5 61.242188 14.5 C 60.894531 14.5 60.601562 14.570312 60.355469 14.714844 C 60.113281 14.855469 59.921875 15.058594 59.78125 15.324219 L 59.78125 19.078125 C 59.921875 19.320312 60.113281 19.503906 60.355469 19.632812 C 60.601562 19.757812 60.902344 19.820312 61.257812 19.820312 C 61.8125 19.820312 62.21875 19.601562 62.480469 19.164062 C 62.738281 18.726562 62.867188 18.132812 62.867188 17.382812 Z M 65.160156 17.394531 C 65.160156 18.660156 64.871094 19.675781 64.289062 20.445312 C 63.707031 21.214844 62.898438 21.601562 61.855469 21.601562 C 61.410156 21.601562 61.015625 21.519531 60.667969 21.351562 C 60.324219 21.1875 60.027344 20.941406 59.78125 20.621094 L 59.78125 24.726562 L 57.492188 24.726562 L 57.492188 12.878906 L 59.558594 12.878906 L 59.695312 13.890625 C 59.945312 13.515625 60.246094 13.226562 60.601562 13.023438 C 60.953125 12.824219 61.367188 12.722656 61.839844 12.722656 C 62.890625 12.722656 63.707031 13.136719 64.289062 13.960938 C 64.871094 14.789062 65.160156 15.878906 65.160156 17.226562 L 65.160156 17.394531 "/>
<path d="M 71.957031 17.230469 C 71.957031 16.390625 71.835938 15.726562 71.59375 15.234375 C 71.347656 14.746094 70.933594 14.5 70.347656 14.5 C 69.992188 14.5 69.691406 14.574219 69.445312 14.726562 C 69.199219 14.878906 69.003906 15.09375 68.863281 15.375 L 68.863281 19.019531 C 69.003906 19.277344 69.199219 19.476562 69.449219 19.617188 C 69.695312 19.753906 70 19.820312 70.363281 19.820312 C 70.953125 19.820312 71.367188 19.613281 71.605469 19.191406 C 71.839844 18.769531 71.957031 18.171875 71.957031 17.394531 Z M 74.246094 17.394531 C 74.246094 18.671875 73.960938 19.691406 73.394531 20.453125 C 72.828125 21.21875 72.011719 21.601562 70.945312 21.601562 C 70.453125 21.601562 70.019531 21.496094 69.652344 21.289062 C 69.28125 21.082031 68.96875 20.777344 68.714844 20.375 L 68.539062 21.433594 L 66.578125 21.433594 L 66.578125 9.097656 L 68.863281 9.097656 L 68.863281 13.789062 C 69.109375 13.445312 69.402344 13.183594 69.746094 12.996094 C 70.089844 12.8125 70.484375 12.722656 70.929688 12.722656 C 72.007812 12.722656 72.828125 13.132812 73.394531 13.949219 C 73.960938 14.769531 74.246094 15.863281 74.246094 17.226562 L 74.246094 17.394531 "/>
<path d="M 79.21875 14.5 C 78.792969 14.5 78.457031 14.664062 78.210938 14.992188 C 77.964844 15.316406 77.8125 15.746094 77.757812 16.28125 L 77.78125 16.320312 L 80.59375 16.320312 L 80.59375 16.113281 C 80.59375 15.625 80.480469 15.230469 80.25 14.9375 C 80.023438 14.648438 79.679688 14.5 79.21875 14.5 Z M 79.421875 21.601562 C 78.195312 21.601562 77.214844 21.207031 76.484375 20.414062 C 75.75 19.625 75.382812 18.621094 75.382812 17.402344 L 75.382812 17.085938 C 75.382812 15.816406 75.730469 14.769531 76.425781 13.945312 C 77.117188 13.125 78.050781 12.714844 79.21875 12.722656 C 80.363281 12.722656 81.253906 13.070312 81.890625 13.765625 C 82.523438 14.460938 82.839844 15.402344 82.839844 16.585938 L 82.839844 17.84375 L 77.765625 17.84375 L 77.75 17.890625 C 77.789062 18.453125 77.976562 18.917969 78.308594 19.277344 C 78.644531 19.640625 79.09375 19.820312 79.664062 19.820312 C 80.171875 19.820312 80.59375 19.769531 80.929688 19.667969 C 81.265625 19.566406 81.632812 19.402344 82.03125 19.183594 L 82.652344 20.609375 C 82.304688 20.894531 81.851562 21.132812 81.292969 21.320312 C 80.730469 21.507812 80.109375 21.601562 79.421875 21.601562 "/>
<path d="M 88.644531 14.863281 L 87.804688 14.839844 C 87.464844 14.839844 87.183594 14.910156 86.964844 15.054688 C 86.746094 15.195312 86.578125 15.394531 86.460938 15.65625 L 86.460938 21.433594 L 84.175781 21.433594 L 84.175781 12.878906 L 86.304688 12.878906 L 86.40625 14.144531 C 86.605469 13.695312 86.863281 13.347656 87.179688 13.097656 C 87.496094 12.847656 87.863281 12.722656 88.277344 12.722656 C 88.390625 12.722656 88.496094 12.730469 88.59375 12.75 C 88.691406 12.765625 88.789062 12.789062 88.890625 12.816406 L 88.644531 14.863281 "/>
<path d="M 94.28125 14.863281 L 93.4375 14.839844 C 93.097656 14.839844 92.816406 14.910156 92.597656 15.054688 C 92.378906 15.195312 92.210938 15.394531 92.09375 15.65625 L 92.09375 21.433594 L 89.808594 21.433594 L 89.808594 12.878906 L 91.9375 12.878906 L 92.039062 14.144531 C 92.238281 13.695312 92.496094 13.347656 92.8125 13.097656 C 93.128906 12.847656 93.496094 12.722656 93.910156 12.722656 C 94.023438 12.722656 94.132812 12.730469 94.226562 12.75 C 94.324219 12.765625 94.421875 12.789062 94.523438 12.816406 L 94.28125 14.863281 "/>
<path d="M 98.726562 17.84375 L 98.820312 18.320312 L 98.867188 18.320312 L 100.492188 12.878906 L 102.960938 12.878906 L 99.511719 22.714844 C 99.269531 23.328125 98.941406 23.84375 98.53125 24.261719 C 98.117188 24.679688 97.496094 24.890625 96.667969 24.890625 C 96.472656 24.890625 96.292969 24.875 96.128906 24.84375 C 95.964844 24.8125 95.765625 24.765625 95.527344 24.710938 L 95.796875 23.023438 C 95.863281 23.035156 95.9375 23.046875 96.015625 23.054688 C 96.09375 23.066406 96.164062 23.074219 96.226562 23.074219 C 96.605469 23.074219 96.894531 22.980469 97.097656 22.792969 C 97.304688 22.605469 97.460938 22.371094 97.570312 22.089844 L 97.839844 21.425781 L 94.820312 12.878906 L 97.289062 12.878906 L 98.726562 17.84375 "/>
<path d="M 110.371094 15.480469 L 112.632812 15.480469 C 113.269531 15.480469 113.753906 15.304688 114.085938 14.953125 C 114.414062 14.605469 114.582031 14.15625 114.582031 13.613281 C 114.582031 13.0625 114.417969 12.605469 114.089844 12.242188 C 113.761719 11.882812 113.277344 11.699219 112.632812 11.699219 L 110.371094 11.699219 Z M 110.371094 17.261719 L 110.371094 21.433594 L 108.074219 21.433594 L 108.074219 9.921875 L 112.632812 9.921875 C 113.945312 9.921875 114.980469 10.257812 115.734375 10.933594 C 116.488281 11.609375 116.867188 12.496094 116.867188 13.597656 C 116.867188 14.699219 116.488281 15.585938 115.734375 16.253906 C 114.980469 16.925781 113.945312 17.261719 112.632812 17.261719 L 110.371094 17.261719 "/>
<path d="M 120.78125 21.433594 L 118.484375 21.433594 L 118.484375 12.878906 L 120.78125 12.878906 Z M 120.78125 10.832031 L 118.484375 10.832031 L 118.484375 9.097656 L 120.78125 9.097656 L 120.78125 10.832031 "/>
<path d="M 124.195312 11.378906 C 123.375 11.378906 122.707031 10.707031 122.707031 9.878906 C 122.707031 9.050781 123.375 8.382812 124.195312 8.382812 C 125.019531 8.382812 125.683594 9.050781 125.683594 9.878906 C 125.683594 10.707031 125.019531 11.378906 124.195312 11.378906 Z M 124.195312 8.082031 C 123.210938 8.082031 122.410156 8.886719 122.410156 9.878906 C 122.410156 10.875 123.210938 11.679688 124.195312 11.679688 C 125.183594 11.679688 125.980469 10.875 125.980469 9.878906 C 125.980469 8.886719 125.183594 8.082031 124.195312 8.082031 "/>
<path d="M 123.863281 9.765625 L 124.324219 9.765625 C 124.511719 9.765625 124.613281 9.683594 124.613281 9.492188 C 124.613281 9.304688 124.511719 9.222656 124.324219 9.222656 L 123.863281 9.222656 Z M 123.445312 8.894531 L 124.472656 8.894531 C 124.816406 8.894531 125.03125 9.136719 125.03125 9.425781 C 125.03125 9.652344 124.941406 9.820312 124.730469 9.910156 L 124.730469 9.914062 C 124.9375 9.96875 124.996094 10.167969 125.007812 10.363281 C 125.015625 10.484375 125.015625 10.710938 125.089844 10.820312 L 124.667969 10.820312 C 124.617188 10.695312 124.625 10.511719 124.601562 10.359375 C 124.574219 10.15625 124.496094 10.066406 124.285156 10.066406 L 123.863281 10.066406 L 123.863281 10.820312 L 123.445312 10.820312 L 123.445312 8.894531 "/>
</g>
</svg>
