<?xml version="1.0" encoding="UTF-8"?>
<svg xmlns="http://www.w3.org/2000/svg" xmlns:xlink="http://www.w3.org/1999/xlink" width="128px" height="128px" viewBox="0 0 128 128" version="1.1">
<g id="surface1">
<path d="M 40.6875 0.00390625 C 40.027344 0.0234375 39.320312 0.261719 38.515625 0.886719 C 36.546875 0.140625 34.640625 -0.121094 32.933594 1.402344 C 30.296875 1.0625 29.445312 1.757812 28.796875 2.566406 C 28.21875 2.554688 24.464844 1.980469 22.75 4.507812 C 18.425781 4.003906 17.058594 7.007812 18.609375 9.808594 C 17.722656 11.152344 16.8125 12.480469 18.875 15.042969 C 18.144531 16.46875 18.597656 18.019531 20.316406 19.890625 C 19.863281 21.902344 20.753906 23.3125 22.355469 24.417969 C 22.054688 27.164062 24.914062 28.761719 25.765625 29.328125 C 26.097656 30.929688 26.78125 32.4375 30.042969 33.273438 C 30.582031 35.660156 32.542969 36.066406 34.445312 36.570312 C 28.164062 40.160156 22.78125 44.886719 22.8125 56.484375 L 21.894531 58.097656 C 14.695312 62.40625 8.214844 76.253906 18.347656 87.511719 C 19.007812 91.035156 20.117188 93.566406 21.105469 96.367188 C 22.582031 107.65625 32.230469 112.9375 34.773438 113.566406 C 38.503906 116.355469 42.472656 119.007812 47.84375 120.867188 C 52.910156 126.007812 58.398438 127.964844 63.917969 127.960938 C 63.996094 127.960938 64.078125 127.960938 64.160156 127.960938 C 69.675781 127.964844 75.164062 126.007812 80.230469 120.867188 C 85.601562 119.007812 89.570312 116.355469 93.300781 113.566406 C 95.84375 112.9375 105.492188 107.65625 106.96875 96.367188 C 107.957031 93.566406 109.066406 91.035156 109.726562 87.511719 C 119.855469 76.253906 113.378906 62.402344 106.179688 58.097656 L 105.257812 56.480469 C 105.296875 44.886719 99.90625 40.160156 93.628906 36.566406 C 95.527344 36.066406 97.492188 35.65625 98.027344 33.273438 C 101.296875 32.4375 101.976562 30.929688 102.304688 29.324219 C 103.160156 28.757812 106.015625 27.160156 105.71875 24.417969 C 107.316406 23.3125 108.207031 21.898438 107.753906 19.890625 C 109.476562 18.019531 109.929688 16.46875 109.199219 15.039062 C 111.265625 12.476562 110.347656 11.152344 109.464844 9.808594 C 111.011719 7.007812 109.644531 4.003906 105.324219 4.507812 C 103.605469 1.980469 99.855469 2.554688 99.277344 2.566406 C 98.628906 1.757812 97.773438 1.0625 95.136719 1.398438 C 93.433594 -0.121094 91.523438 0.140625 89.554688 0.886719 C 87.21875 -0.929688 85.675781 0.523438 83.90625 1.074219 C 81.078125 0.164062 80.433594 1.410156 79.039062 1.917969 C 75.957031 1.277344 75.019531 2.675781 73.539062 4.148438 L 71.816406 4.113281 C 67.164062 6.8125 64.855469 12.308594 64.035156 15.132812 C 63.214844 12.308594 60.90625 6.8125 56.253906 4.113281 L 54.535156 4.148438 C 53.054688 2.675781 52.113281 1.277344 49.03125 1.917969 C 47.640625 1.410156 46.992188 0.164062 44.164062 1.074219 C 43.003906 0.714844 41.9375 -0.0390625 40.683594 0.00390625 L 40.6875 0.00390625 "/>
<path fill="#6cc04a" d="M 31.511719 11.871094 C 43.859375 18.136719 51.039062 23.203125 54.96875 27.519531 C 52.957031 35.460938 42.449219 35.824219 38.609375 35.597656 C 39.394531 35.238281 40.054688 34.808594 40.285156 34.144531 C 39.320312 33.472656 35.902344 34.074219 33.515625 32.753906 C 34.433594 32.566406 34.863281 32.386719 35.292969 31.71875 C 33.039062 31.011719 30.609375 30.402344 29.179688 29.234375 C 29.949219 29.242188 30.671875 29.402344 31.675781 28.714844 C 29.660156 27.644531 27.503906 26.796875 25.828125 25.160156 C 26.871094 25.132812 28 25.148438 28.324219 24.769531 C 26.476562 23.644531 24.917969 22.390625 23.628906 21.023438 C 25.089844 21.195312 25.703125 21.046875 26.058594 20.796875 C 24.660156 19.386719 22.894531 18.199219 22.054688 16.460938 C 23.136719 16.832031 24.128906 16.972656 24.84375 16.433594 C 24.371094 15.378906 22.335938 14.757812 21.164062 12.296875 C 22.308594 12.402344 23.519531 12.539062 23.761719 12.296875 C 23.230469 10.171875 22.320312 8.976562 21.429688 7.738281 C 23.871094 7.703125 27.574219 7.75 27.40625 7.542969 L 25.898438 6.023438 C 28.28125 5.390625 30.726562 6.128906 32.5 6.671875 C 33.296875 6.054688 32.484375 5.269531 31.515625 4.472656 C 33.542969 4.738281 35.375 5.199219 37.035156 5.832031 C 37.917969 5.042969 36.460938 4.257812 35.75 3.472656 C 38.886719 4.054688 40.214844 4.878906 41.535156 5.703125 C 42.492188 4.796875 41.585938 4.03125 40.941406 3.246094 C 43.304688 4.105469 44.523438 5.21875 45.804688 6.316406 C 46.238281 5.738281 46.90625 5.316406 46.097656 3.921875 C 47.777344 4.875 49.039062 5.996094 49.976562 7.25 C 51.015625 6.601562 50.597656 5.714844 50.597656 4.894531 C 52.34375 6.289062 53.449219 7.773438 54.804688 9.222656 C 55.078125 9.027344 55.316406 8.367188 55.527344 7.316406 C 59.6875 11.289062 65.566406 21.292969 57.039062 25.257812 C 49.78125 19.367188 41.113281 15.085938 31.507812 11.875 L 31.511719 11.871094 "/>
<path fill="#6cc04a" d="M 96.90625 11.871094 C 84.558594 18.136719 77.382812 23.203125 73.449219 27.519531 C 75.464844 35.460938 85.96875 35.824219 89.8125 35.597656 C 89.023438 35.238281 88.371094 34.808594 88.136719 34.144531 C 89.097656 33.472656 92.515625 34.074219 94.902344 32.753906 C 93.988281 32.566406 93.558594 32.386719 93.128906 31.71875 C 95.382812 31.011719 97.8125 30.402344 99.238281 29.234375 C 98.46875 29.242188 97.75 29.402344 96.742188 28.714844 C 98.761719 27.644531 100.917969 26.796875 102.589844 25.160156 C 101.546875 25.132812 100.417969 25.148438 100.09375 24.769531 C 101.941406 23.644531 103.5 22.390625 104.792969 21.023438 C 103.328125 21.195312 102.714844 21.046875 102.359375 20.796875 C 103.757812 19.386719 105.523438 18.199219 106.371094 16.460938 C 105.28125 16.832031 104.292969 16.972656 103.574219 16.433594 C 104.050781 15.378906 106.082031 14.757812 107.253906 12.296875 C 106.113281 12.402344 104.902344 12.539062 104.660156 12.296875 C 105.1875 10.167969 106.097656 8.976562 106.992188 7.734375 C 104.546875 7.703125 100.84375 7.746094 101.011719 7.542969 L 102.523438 6.023438 C 100.136719 5.390625 97.695312 6.125 95.921875 6.671875 C 95.125 6.054688 95.933594 5.269531 96.90625 4.472656 C 94.878906 4.738281 93.042969 5.199219 91.386719 5.828125 C 90.503906 5.042969 91.960938 4.257812 92.667969 3.46875 C 89.535156 4.054688 88.207031 4.878906 86.886719 5.703125 C 85.929688 4.796875 86.832031 4.03125 87.476562 3.246094 C 85.113281 4.105469 83.898438 5.21875 82.613281 6.3125 C 82.183594 5.738281 81.511719 5.3125 82.320312 3.921875 C 80.644531 4.875 79.378906 5.996094 78.445312 7.25 C 77.40625 6.601562 77.824219 5.710938 77.820312 4.890625 C 76.078125 6.289062 74.96875 7.773438 73.613281 9.222656 C 73.339844 9.027344 73.101562 8.367188 72.890625 7.316406 C 68.734375 11.289062 62.855469 21.289062 71.382812 25.253906 C 78.632812 19.367188 87.300781 15.082031 96.90625 11.871094 "/>
<path fill="#c51a4a" d="M 79.140625 92.738281 C 79.183594 100.148438 72.597656 106.1875 64.429688 106.230469 C 56.261719 106.265625 49.605469 100.292969 49.5625 92.882812 C 49.5625 92.835938 49.5625 92.789062 49.5625 92.738281 C 49.519531 85.328125 56.105469 79.289062 64.273438 79.25 C 72.441406 79.210938 79.097656 85.1875 79.140625 92.597656 C 79.140625 92.644531 79.140625 92.691406 79.140625 92.738281 "/>
<path fill="#c51a4a" d="M 56.082031 54.410156 C 62.207031 58.359375 63.3125 67.3125 58.550781 74.410156 C 53.78125 81.503906 44.953125 84.054688 38.824219 80.101562 C 32.699219 76.152344 31.59375 67.199219 36.355469 60.101562 C 41.125 53.007812 49.953125 50.460938 56.082031 54.410156 "/>
<path fill="#c51a4a" d="M 72.621094 53.691406 C 66.492188 57.644531 65.386719 66.597656 70.15625 73.691406 C 74.917969 80.789062 83.75 83.339844 89.875 79.386719 C 96.007812 75.4375 97.109375 66.484375 92.34375 59.386719 C 87.582031 52.292969 78.75 49.742188 72.621094 53.691406 "/>
<path fill="#c51a4a" d="M 25.835938 60.910156 C 32.449219 59.164062 28.066406 87.839844 22.6875 85.488281 C 16.765625 80.800781 14.855469 67.078125 25.835938 60.910156 "/>
<path fill="#c51a4a" d="M 102.289062 60.550781 C 95.675781 58.808594 100.054688 87.484375 105.441406 85.128906 C 111.359375 80.445312 113.265625 66.71875 102.289062 60.550781 "/>
<path fill="#c51a4a" d="M 80.101562 39.15625 C 91.519531 37.257812 101.019531 43.933594 100.636719 56.113281 C 100.261719 60.785156 75.894531 39.851562 80.101562 39.15625 "/>
<path fill="#c51a4a" d="M 48.554688 38.796875 C 37.136719 36.902344 27.636719 43.578125 28.023438 55.757812 C 28.398438 60.429688 52.761719 39.492188 48.554688 38.796875 "/>
<path fill="#c51a4a" d="M 64.285156 35.957031 C 57.472656 35.78125 50.933594 40.933594 50.917969 43.921875 C 50.894531 47.550781 56.300781 51.265625 64.332031 51.363281 C 72.53125 51.417969 77.761719 48.386719 77.789062 44.640625 C 77.820312 40.398438 70.332031 35.890625 64.285156 35.957031 "/>
<path fill="#c51a4a" d="M 64.8125 110.398438 C 70.75 110.144531 78.722656 112.28125 78.738281 115.113281 C 78.839844 117.871094 71.507812 124.09375 64.417969 123.972656 C 57.070312 124.285156 49.871094 118.054688 49.960938 115.890625 C 49.855469 112.722656 58.90625 110.25 64.8125 110.398438 "/>
<path fill="#c51a4a" d="M 42.824219 93.585938 C 47.054688 98.601562 48.980469 107.410156 45.453125 110.007812 C 42.113281 111.992188 34.003906 111.175781 28.234375 103.023438 C 24.351562 96.1875 24.851562 89.230469 27.582031 87.1875 C 31.660156 84.738281 37.96875 88.046875 42.824219 93.585938 "/>
<path fill="#c51a4a" d="M 85.410156 91.996094 C 80.835938 97.273438 78.285156 106.890625 81.625 109.992188 C 84.816406 112.398438 93.386719 112.0625 99.71875 103.417969 C 104.3125 97.613281 102.773438 87.921875 100.144531 85.347656 C 96.246094 82.378906 90.648438 86.175781 85.410156 91.996094 "/>
</g>
</svg>
